<?xml version="1.0" encoding="UTF-8" standalone="no"?>
<!-- Created with Inkscape (http://www.inkscape.org/) -->
<svg
   xmlns:dc="http://purl.org/dc/elements/1.1/"
   xmlns:cc="http://web.resource.org/cc/"
   xmlns:rdf="http://www.w3.org/1999/02/22-rdf-syntax-ns#"
   xmlns:svg="http://www.w3.org/2000/svg"
   xmlns="http://www.w3.org/2000/svg"
   xmlns:sodipodi="http://sodipodi.sourceforge.net/DTD/sodipodi-0.dtd"
   xmlns:inkscape="http://www.inkscape.org/namespaces/inkscape"
   id="svg2"
   sodipodi:version="0.32"
   inkscape:version="0.45.1"
   width="210mm"
   height="297mm"
   sodipodi:docbase="/media/disk"
   sodipodi:docname="twitter.svg"
   inkscape:output_extension="org.inkscape.output.svg.inkscape"
   inkscape:export-filename="/home/pinheiro/Documents/pics/estilo/plasma/Desenho-1.png"
   inkscape:export-xdpi="119.98476"
   inkscape:export-ydpi="119.98476">
  <sodipodi:namedview
     inkscape:window-height="742"
     inkscape:window-width="1016"
     inkscape:pageshadow="2"
     inkscape:pageopacity="0.0"
     guidetolerance="10.0"
     gridtolerance="10.0"
     objecttolerance="10.0"
     borderopacity="1.0"
     bordercolor="#666666"
     pagecolor="#ffffff"
     id="base"
     inkscape:zoom="1.7176369"
     inkscape:cx="196.79713"
     inkscape:cy="373.89321"
     inkscape:window-x="6"
     inkscape:window-y="44"
     inkscape:current-layer="svg2"
     showgrid="false"
     showguides="true"
     inkscape:guide-bbox="true">
    <inkscape:grid
       type="xygrid"
       id="grid2902"
       spacingy="1px"
       spacingx="1px"
       empspacing="5" />
    <sodipodi:guide
       orientation="vertical"
       position="1693"
       id="guide3364" />
    <sodipodi:guide
       orientation="horizontal"
       position="651.86406"
       id="guide3366" />
    <sodipodi:guide
       orientation="vertical"
       position="2161.6254"
       id="guide3852" />
  </sodipodi:namedview>
  <metadata
     id="metadata7">
    <rdf:RDF>
      <cc:Work
         rdf:about="">
        <dc:format>image/svg+xml</dc:format>
        <dc:type
           rdf:resource="http://purl.org/dc/dcmitype/StillImage" />
      </cc:Work>
    </rdf:RDF>
  </metadata>
  <defs
     id="defs5">
    <filter
       inkscape:collect="always"
       id="filter2934">
      <feGaussianBlur
         inkscape:collect="always"
         stdDeviation="3.0225769"
         id="feGaussianBlur2936" />
    </filter>
    <filter
       inkscape:collect="always"
       id="filter2980">
      <feGaussianBlur
         inkscape:collect="always"
         stdDeviation="1.5620506"
         id="feGaussianBlur2982" />
    </filter>
  </defs>
  <g
     inkscape:groupmode="layer"
     id="layer1"
     inkscape:label="layer1"
     style="display:none" />
  <g
     inkscape:groupmode="layer"
     id="layer2"
     inkscape:label="glow"
     style="display:inline" />
  <rect
     style="fill:#000000;fill-opacity:1;stroke:none;stroke-width:1;stroke-linecap:round;stroke-linejoin:round;stroke-miterlimit:4;stroke-dasharray:none;stroke-dashoffset:1.08779998;stroke-opacity:1"
     id="rect3330"
     width="280"
     height="210"
     x="51.884933"
     y="523.50952"
     rx="4.9597645"
     ry="4.9597645" />
  <rect
     style="opacity:1;fill:#202020;fill-opacity:1;stroke:none;stroke-width:4;stroke-linecap:round;stroke-linejoin:round;stroke-miterlimit:4;stroke-dasharray:none;stroke-dashoffset:1.08779998;stroke-opacity:1"
     id="rect3125"
     width="278"
     height="56"
     x="52.884933"
     y="543.50952"
     rx="0"
     ry="0"
     inkscape:export-filename="/home/pinheiro/Documents/pics/estilo/plasma/rect2996.png"
     inkscape:export-xdpi="90"
     inkscape:export-ydpi="90" />
  <rect
     inkscape:export-ydpi="90"
     inkscape:export-xdpi="90"
     inkscape:export-filename="/home/pinheiro/Documents/pics/estilo/plasma/rect2996.png"
     ry="0"
     rx="0"
     y="606.50952"
     x="52.884933"
     height="122"
     width="278"
     id="tweet"
     style="opacity:1;fill:#ffffff;fill-opacity:0.09803922;stroke:none;stroke-width:4;stroke-linecap:round;stroke-linejoin:round;stroke-miterlimit:4;stroke-dasharray:none;stroke-dashoffset:1.08779998;stroke-opacity:1"
     inkscape:label="#rect3313" />
  <path
     style="opacity:1;fill:#616161;fill-opacity:1;stroke:none;stroke-width:1;stroke-linecap:round;stroke-linejoin:round;stroke-miterlimit:4;stroke-dasharray:none;stroke-dashoffset:1.08779998;stroke-opacity:1"
     d="M 313.29113,568.52234 C 312.50773,568.52234 311.88493,569.14514 311.88493,569.92859 L 311.88493,577.08484 C 311.88493,577.86831 312.50773,578.52234 313.29113,578.52234 L 320.47873,578.52234 C 321.26213,578.52234 321.88493,577.86829 321.88493,577.08484 L 321.88493,569.92859 C 321.88493,569.14512 321.26213,568.52234 320.47873,568.52234 L 313.29113,568.52234 z M 318.88493,569.52234 C 319.09183,569.54028 319.31403,569.57066 319.50993,569.64734 L 318.69743,570.45984 C 318.35523,570.80206 318.35523,571.33636 318.69743,571.67859 C 319.03953,572.0208 319.60523,572.0208 319.94743,571.67859 L 320.72873,570.89734 C 321.03553,571.68103 320.89273,572.60824 320.25993,573.24109 C 319.62703,573.87394 318.69983,574.04782 317.91613,573.74109 L 314.38493,577.24109 C 314.04263,577.58331 313.47713,577.5833 313.13493,577.24109 C 312.79263,576.89887 312.79263,576.36457 313.13493,576.02234 L 316.66613,572.49109 C 316.35943,571.7074 316.53333,570.78018 317.16613,570.14734 C 317.64083,569.67272 318.26423,569.46852 318.88493,569.52234 z "
     id="path3368" />
  <path
     id="path3370"
     d="M 320.47873,550.50952 C 321.26213,550.50952 321.88493,551.13232 321.88493,551.91577 L 321.88493,559.07202 C 321.88493,559.85549 321.26213,560.50952 320.47873,560.50952 L 313.29113,560.50952 C 312.50773,560.50952 311.88493,559.85547 311.88493,559.07202 L 311.88493,551.91577 C 311.88493,551.1323 312.50773,550.50952 313.29113,550.50952 L 320.47873,550.50952 z M 319.82243,552.07202 C 319.83733,552.08061 313.88493,555.52669 313.88493,555.50952 C 313.88493,555.49237 319.83733,558.90719 319.82243,558.91577 C 319.80763,558.92438 319.80753,552.06344 319.82243,552.07202 z "
     style="opacity:1;fill:#616161;fill-opacity:1;stroke:none;stroke-width:1;stroke-linecap:round;stroke-linejoin:round;stroke-miterlimit:4;stroke-dasharray:none;stroke-dashoffset:1.08779998;stroke-opacity:1" />
  <path
     sodipodi:nodetypes="csscccsccsssc"
     id="path3374"
     d="M 314.86853,625.04554 C 312.39723,626.27411 311.38863,629.27693 312.61723,631.74825 C 313.84573,634.21957 316.84853,635.22818 319.31993,633.9996 C 320.19363,633.5652 320.88283,632.9062 321.35673,632.13012 C 318.90033,631.6912 316.98483,630.86325 315.88683,629.44731 L 321.79053,627.80825 C 321.72723,627.63561 321.65503,627.46532 321.57123,627.29689 C 320.34273,624.82557 317.33983,623.81695 314.86853,625.04554 z M 317.28073,625.62118 C 317.82973,625.34816 318.49713,625.5723 318.77013,626.12148 C 319.04313,626.67067 318.81893,627.33794 318.26993,627.61098 C 317.72063,627.88399 317.05343,627.65986 316.78033,627.11067 C 316.50733,626.56149 316.73143,625.8942 317.28073,625.62118 z "
     style="opacity:1;fill:#616161;fill-opacity:1;stroke:none;stroke-width:1;stroke-linecap:round;stroke-linejoin:round;stroke-miterlimit:4;stroke-dasharray:none;stroke-dashoffset:1.08779998;stroke-opacity:1" />
  <path
     id="path3386"
     d="M 316.95223,584.50953 C 316.96293,584.51569 312.67623,586.97975 312.67623,586.96744 C 312.67623,586.95512 316.96293,589.41918 316.95223,589.42535 C 316.94923,589.42708 316.95353,588.60326 316.95223,588.04488 C 318.11033,588.08081 319.03983,589.03301 319.03983,590.19976 C 319.03983,591.38925 318.07443,592.35464 316.88493,592.35464 C 315.69533,592.35464 314.73003,591.38925 314.73003,590.19976 C 313.76093,590.19976 313.58713,590.19976 312.57513,590.19976 C 312.57513,592.57875 314.50593,594.50952 316.88493,594.50952 C 319.26393,594.50952 321.19473,592.57875 321.19473,590.19976 C 321.19473,587.84334 319.30013,585.92615 316.95223,585.89 C 316.95353,585.33161 316.94923,584.50779 316.95223,584.50953 z "
     style="opacity:1;fill:#616161;fill-opacity:1;stroke:none;stroke-width:1;stroke-linecap:round;stroke-linejoin:round;stroke-miterlimit:4;stroke-dasharray:none;stroke-dashoffset:1.08779998;stroke-opacity:1" />
  <rect
     ry="6.082026"
     rx="6.0820246"
     y="472.36218"
     x="2125"
     height="50"
     width="0"
     id="rect3415"
     style="opacity:1;fill:#202020;fill-opacity:1;stroke:none;stroke-width:1;stroke-linecap:round;stroke-linejoin:round;stroke-miterlimit:4;stroke-dasharray:none;stroke-dashoffset:1.08779998000000000;stroke-opacity:1" />
  <path
     id="path3419"
     d="M 56.884932,547.50952 L 57.884932,547.50952 L 57.884932,595.50952 L 56.884932,595.50952 L 56.884932,547.50952 z "
     style="fill:#202020;fill-opacity:1;fill-rule:evenodd;stroke:#181818;stroke-width:0.98974335px;stroke-linecap:butt;stroke-linejoin:miter;stroke-opacity:1" />
  <text
     xml:space="preserve"
     style="font-size:10.14966774px;font-style:normal;font-weight:normal;fill:#ffffff;fill-opacity:1;stroke:none;stroke-width:1px;stroke-linecap:butt;stroke-linejoin:miter;stroke-opacity:1;font-family:Liberation Sans"
     x="296.71796"
     y="617.40326"
     id="text3828"><tspan
       sodipodi:role="line"
       x="296.71796"
       y="617.40326"
       id="tspan3830">00:13</tspan></text>
  <g
     id="twitter"
     transform="matrix(1.9742636,0,0,1.9742636,930.29946,-83.499654)">
    <path
       id="text3421"
       d="M -185.92026,490.93672 L -186.12218,491.96796 L -188.7688,491.96796 L -189.62696,496.35254 C -189.65581,496.51601 -189.67745,496.65302 -189.69187,496.7636 C -189.70629,496.87418 -189.7135,496.96071 -189.7135,497.02321 C -189.7135,497.3309 -189.62216,497.55446 -189.43947,497.69388 C -189.25197,497.8333 -188.9539,497.90301 -188.54524,497.90301 L -187.20391,497.90301 L -187.42746,499.01358 L -188.69668,499.01358 C -189.48514,499.01358 -190.07408,498.85974 -190.4635,498.55205 C -190.84811,498.24436 -191.04042,497.77801 -191.04041,497.15302 C -191.04042,497.04244 -191.0332,496.92225 -191.01878,496.79244 C -191.00436,496.65783 -190.98272,496.5112 -190.95388,496.35254 L -190.09571,491.96796 L -191.2207,491.96796 L -191.01157,490.93672 L -189.90821,490.93672 L -189.4611,488.64347 L -188.13419,488.64347 L -188.57409,490.93672 L -185.92026,490.93672 M -185.11258,490.93672 L -183.80009,490.93672 L -183.46115,497.43427 L -180.44675,490.93672 L -178.9107,490.93672 L -178.46359,497.43427 L -175.60063,490.93672 L -174.27372,490.93672 L -177.966,499.01358 L -179.51647,499.01358 L -179.9131,492.32132 L -182.99961,499.01358 L -184.5645,499.01358 L -185.11258,490.93672 M -171.57662,487.79251 L -170.24971,487.79251 L -170.57423,489.47279 L -171.90114,489.47279 L -171.57662,487.79251 M -172.18239,490.93672 L -170.85548,490.93672 L -172.43479,499.01358 L -173.7617,499.01358 L -172.18239,490.93672 M -163.93966,490.93672 L -164.14158,491.96796 L -166.7882,491.96796 L -167.64637,496.35254 C -167.67521,496.51601 -167.69685,496.65302 -167.71127,496.7636 C -167.72569,496.87418 -167.73291,496.96071 -167.7329,497.02321 C -167.73291,497.3309 -167.64156,497.55446 -167.45887,497.69388 C -167.27137,497.8333 -166.9733,497.90301 -166.56464,497.90301 L -165.22331,497.90301 L -165.44686,499.01358 L -166.71608,499.01358 C -167.50454,499.01358 -168.09348,498.85974 -168.4829,498.55205 C -168.86751,498.24436 -169.05982,497.77801 -169.05982,497.15302 C -169.05982,497.04244 -169.05261,496.92225 -169.03818,496.79244 C -169.02376,496.65783 -169.00212,496.5112 -168.97328,496.35254 L -168.11511,491.96796 L -169.2401,491.96796 L -169.03097,490.93672 L -167.92761,490.93672 L -167.4805,488.64347 L -166.15359,488.64347 L -166.59349,490.93672 L -163.93966,490.93672 M -158.14163,490.93672 L -158.34355,491.96796 L -160.99017,491.96796 L -161.84833,496.35254 C -161.87718,496.51601 -161.89882,496.65302 -161.91324,496.7636 C -161.92766,496.87418 -161.93487,496.96071 -161.93487,497.02321 C -161.93487,497.3309 -161.84353,497.55446 -161.66084,497.69388 C -161.47334,497.8333 -161.17527,497.90301 -160.76661,497.90301 L -159.42528,497.90301 L -159.64883,499.01358 L -160.91805,499.01358 C -161.70651,499.01358 -162.29545,498.85974 -162.68487,498.55205 C -163.06948,498.24436 -163.26179,497.77801 -163.26178,497.15302 C -163.26179,497.04244 -163.25457,496.92225 -163.24015,496.79244 C -163.22573,496.65783 -163.20409,496.5112 -163.17525,496.35254 L -162.31708,491.96796 L -163.44207,491.96796 L -163.23294,490.93672 L -162.12958,490.93672 L -161.68247,488.64347 L -160.35556,488.64347 L -160.79546,490.93672 L -158.14163,490.93672 M -151.48544,494.254 C -151.47102,494.17708 -151.4614,494.09776 -151.45659,494.01602 C -151.44698,493.9343 -151.44217,493.85257 -151.44217,493.77083 C -151.44217,493.1843 -151.61525,492.72037 -151.96139,492.37902 C -152.30274,492.03768 -152.76908,491.86701 -153.36042,491.867 C -154.01907,491.86701 -154.6008,492.07614 -155.1056,492.4944 C -155.61041,492.90786 -155.99261,493.4968 -156.25222,494.26121 L -151.48544,494.254 M -150.3316,495.29246 L -156.50463,495.29246 C -156.53347,495.47515 -156.55271,495.61938 -156.56232,495.72514 C -156.57194,495.83092 -156.57674,495.92226 -156.57674,495.99918 C -156.57674,496.66745 -156.37242,497.18427 -155.96377,497.54965 C -155.55031,497.91503 -154.96858,498.09772 -154.21859,498.09772 C -153.64167,498.09772 -153.09601,498.03282 -152.58158,497.90301 C -152.06717,497.77321 -151.58881,497.5833 -151.1465,497.3333 L -151.3989,498.64579 C -151.87486,498.8381 -152.36765,498.98233 -152.87725,499.07848 C -153.38206,499.17464 -153.89648,499.22271 -154.42051,499.22271 C -155.5407,499.22271 -156.40367,498.95589 -157.00943,498.42224 C -157.61039,497.88378 -157.91087,497.12177 -157.91087,496.1362 C -157.91087,495.29486 -157.76183,494.51362 -157.46375,493.79247 C -157.16087,493.06652 -156.71857,492.41989 -156.13684,491.85258 C -155.76185,491.49682 -155.31714,491.22278 -154.80272,491.03047 C -154.28349,490.83817 -153.73302,490.74202 -153.15129,490.74201 C -152.23784,490.74202 -151.51188,491.01605 -150.97342,491.56412 C -150.43016,492.1122 -150.15853,492.84777 -150.15852,493.77083 C -150.15853,493.99199 -150.17295,494.22997 -150.20179,494.48477 C -150.23065,494.73477 -150.27391,495.004 -150.3316,495.29246 M -142.91819,492.16267 C -143.05281,492.09056 -143.20666,492.03528 -143.37973,491.99681 C -143.55281,491.95835 -143.73791,491.93912 -143.93501,491.93912 C -144.64174,491.93912 -145.25953,492.20835 -145.78836,492.7468 C -146.31721,493.28046 -146.66817,493.9968 -146.84124,494.89582 L -147.65614,499.01358 L -148.98305,499.01358 L -147.40374,490.93672 L -146.07682,490.93672 L -146.32923,492.19152 C -145.97827,491.72518 -145.56,491.36701 -145.07443,491.11701 C -144.58405,490.86702 -144.06242,490.74202 -143.50954,490.74201 C -143.36531,490.74202 -143.22349,490.75163 -143.08406,490.77086 C -142.94464,490.78529 -142.80522,490.81173 -142.66579,490.85018 L -142.91819,492.16267"
       style="font-size:12.92297554px;font-style:normal;font-weight:bold;fill:#8b98e4;fill-opacity:1;stroke:none;stroke-width:1px;stroke-linecap:butt;stroke-linejoin:miter;stroke-opacity:1;font-family:Liberation Sans" />
    <path
       id="text2244"
       d="M -217.02235,489.12582 L -215.74772,489.12582 L -215.74772,493.10746 L -211.51998,489.12582 L -209.87937,489.12582 L -214.55512,493.51762 L -209.54494,498.54672 L -211.22341,498.54672 L -215.74772,494.0098 L -215.74772,498.54672 L -217.02235,498.54672 L -217.02235,489.12582 M -207.26701,490.17329 L -207.26701,497.49925 L -205.72736,497.49925 C -204.4275,497.49926 -203.47679,497.20479 -202.87522,496.61585 C -202.26946,496.02691 -201.96658,495.09723 -201.96657,493.82681 C -201.96658,492.5648 -202.26946,491.64143 -202.87522,491.0567 C -203.47679,490.46777 -204.4275,490.1733 -205.72736,490.17329 L -207.26701,490.17329 M -208.54164,489.12582 L -205.92297,489.12582 C -204.09727,489.12583 -202.75744,489.50654 -201.90347,490.26794 C -201.04952,491.02515 -200.62254,492.21144 -200.62253,493.82681 C -200.62254,495.4506 -201.05163,496.64319 -201.90978,497.4046 C -202.76796,498.16602 -204.10569,498.54672 -205.92297,498.54672 L -208.54164,498.54672 L -208.54164,489.12582 M -198.59701,489.12582 L -192.64033,489.12582 L -192.64033,490.19853 L -197.32238,490.19853 L -197.32238,492.98757 L -192.83594,492.98757 L -192.83594,494.06028 L -197.32238,494.06028 L -197.32238,497.47401 L -192.52675,497.47401 L -192.52675,498.54672 L -198.59701,498.54672 L -198.59701,489.12582"
       style="font-size:12.92297554px;font-style:normal;font-weight:bold;fill:#ffffff;fill-opacity:1;stroke:none;stroke-width:1px;stroke-linecap:butt;stroke-linejoin:miter;stroke-opacity:1;font-family:Liberation Sans" />
  </g>
</svg>
