<?xml version="1.0" encoding="UTF-8" standalone="no"?>
<!-- Created with Inkscape (http://www.inkscape.org/) -->
<svg
   xmlns:svg="http://www.w3.org/2000/svg"
   xmlns="http://www.w3.org/2000/svg"
   xmlns:xlink="http://www.w3.org/1999/xlink"
   version="1.0"
   width="250"
   height="250"
   id="svg3465">
  <defs
     id="defs3467">
    <linearGradient
       id="linearGradient3603">
      <stop
         id="stop3605"
         style="stop-color:#ffffff;stop-opacity:0.58823532"
         offset="0" />
      <stop
         id="stop3607"
         style="stop-color:#ffffff;stop-opacity:0"
         offset="1" />
    </linearGradient>
    <linearGradient
       id="linearGradient3522">
      <stop
         id="stop3524"
         style="stop-color:#000000;stop-opacity:1"
         offset="0" />
      <stop
         id="stop3528"
         style="stop-color:#000000;stop-opacity:1"
         offset="0.95999998" />
      <stop
         id="stop3526"
         style="stop-color:#000000;stop-opacity:0"
         offset="1" />
    </linearGradient>
    <linearGradient
       id="linearGradient3502">
      <stop
         id="stop3504"
         style="stop-color:#ffffff;stop-opacity:1"
         offset="0" />
      <stop
         id="stop3506"
         style="stop-color:#ffffff;stop-opacity:0.19607843"
         offset="1" />
    </linearGradient>
    <linearGradient
       x1="490"
       y1="277"
       x2="533.57776"
       y2="386.35556"
       id="linearGradient3444"
       xlink:href="#linearGradient3502"
       gradientUnits="userSpaceOnUse"
       gradientTransform="matrix(1.2162162,0,0,1.2162162,-55.945946,-108.89189)"
       spreadMethod="pad" />
    <linearGradient
       id="linearGradient3295">
      <stop
         id="stop3297"
         style="stop-color:#ffffff;stop-opacity:0.23529412"
         offset="0" />
      <stop
         id="stop3299"
         style="stop-color:#ffffff;stop-opacity:0"
         offset="1" />
    </linearGradient>
    <linearGradient
       id="linearGradient5469">
      <stop
         id="stop5471"
         style="stop-color:#0f0f0f;stop-opacity:1"
         offset="0" />
      <stop
         id="stop5473"
         style="stop-color:#000000;stop-opacity:1"
         offset="1" />
    </linearGradient>
    <radialGradient
       cx="564"
       cy="351"
       r="74.732674"
       fx="564"
       fy="351"
       id="radialGradient3257"
       xlink:href="#linearGradient3522"
       gradientUnits="userSpaceOnUse" />
    <radialGradient
       cx="564"
       cy="351"
       r="74.371857"
       fx="564"
       fy="351"
       id="radialGradient3259"
       xlink:href="#linearGradient5469"
       gradientUnits="userSpaceOnUse" />
    <radialGradient
       cx="489.58658"
       cy="276.58658"
       r="74.371857"
       fx="489.58658"
       fy="276.58658"
       id="radialGradient3261"
       xlink:href="#linearGradient3295"
       gradientUnits="userSpaceOnUse"
       gradientTransform="matrix(-1.4870833e-7,1.5675419,-2.0011175,-1.8984044e-7,1043.0689,-490.86084)"
       spreadMethod="reflect" />
    <linearGradient
       x1="489.58658"
       y1="276.58658"
       x2="575.57544"
       y2="366.7095"
       id="linearGradient3263"
       xlink:href="#linearGradient3603"
       gradientUnits="userSpaceOnUse"
       spreadMethod="reflect" />
  </defs>
  <g
     id="layer1">
    <g
       transform="translate(-48.000001,-2.0000026)"
       id="ClockFace">
      <path
         d="M 638,351 A 74,74 0 1 1 490,351 A 74,74 0 1 1 638,351 z"
         transform="matrix(1.6554054,0,0,1.6554054,-760.64866,-454.04731)"
         id="path2276"
         style="opacity:0.8;fill:url(#radialGradient3259);fill-opacity:1;stroke:#000000;stroke-width:0.60408163;stroke-miterlimit:4;stroke-dasharray:none;stroke-opacity:1" />
      <path
         d="M 638,351 A 74,74 0 1 1 490,351 A 74,74 0 1 1 638,351 z"
         transform="matrix(1.5202703,0,0,1.5202703,-684.43241,-406.61485)"
         id="path3273"
         style="fill:url(#radialGradient3261);fill-opacity:1;stroke:url(#linearGradient3263);stroke-width:0.65777779;stroke-miterlimit:4;stroke-dasharray:none;stroke-opacity:0.19491523" />
      <path
         d="M 638,351 A 74,74 0 1 1 490,351 A 74,74 0 1 1 638,351 z"
         transform="matrix(1.6554054,0,0,1.6554054,-760.64868,-454.04732)"
         id="path3530"
         style="fill:none;fill-opacity:1;stroke:#000000;stroke-width:0.60408163;stroke-miterlimit:4;stroke-dasharray:none;stroke-opacity:0.78431373" />
      <path
         d="M 638,351 A 74,74 0 1 1 490,351 A 74,74 0 1 1 638,351 z"
         transform="matrix(1.6351351,0,0,1.6351351,-749.21622,-446.93243)"
         id="path3271"
         style="fill:none;fill-opacity:1;stroke:#ffffff;stroke-width:1.2231406;stroke-miterlimit:4;stroke-dasharray:none;stroke-opacity:0.15686275" />
      <path
         d="M 638,351 A 74,74 0 1 1 490,351 A 74,74 0 1 1 638,351 z"
         transform="matrix(1.6756757,0,0,1.6756757,-772.08108,-461.16216)"
         id="path3265"
         style="fill:none;fill-opacity:1;stroke:url(#radialGradient3257);stroke-width:1.19354844;stroke-miterlimit:4;stroke-dasharray:none;stroke-opacity:1" />
    </g>
    <g
       transform="matrix(1.2555556,0,0,1.2555556,-666.00002,-274.26669)"
       id="Glass">
      <path
         d="M 638,351 A 74,74 0 1 1 490,351 A 74,74 0 1 1 638,351 z"
         transform="matrix(1.2162162,0,0,1.2162162,-55.945946,-108.89189)"
         id="path3446"
         style="opacity:1;fill:none;fill-opacity:1;stroke:none;stroke-width:0.82681561;stroke-miterlimit:4;stroke-dasharray:none;stroke-opacity:0.19491523" />
      <path
         d="M 630,228 C 580.32,228 539.99999,268.32 540,318 C 540,322.35129 540.30843,326.62562 540.90625,330.8125 C 555.59211,335.46649 571.45725,338 588,338 C 640.44532,338 686.04098,312.46846 709.0625,275 C 693.79624,247.01242 664.10533,228 630,228 z"
         id="path3411"
         style="opacity:0.1;fill:url(#linearGradient3444);fill-opacity:1;stroke:none;stroke-width:0.82681561;stroke-miterlimit:4;stroke-dasharray:none;stroke-opacity:0.19491523" />
    </g>
    <rect
       width="112"
       height="1"
       x="123.99998"
       y="-125"
       transform="matrix(0,1,-1,0,0,0)"
       id="SecondHand"
       style="opacity:0.8;fill:#ffffff;fill-opacity:0.78431373;stroke:none;stroke-width:1;stroke-miterlimit:4;stroke-dasharray:none;stroke-opacity:0.19491523" />
    <path
       d="M 127,126 L 125,236 L 123,126"
       id="MinuteHand"
       style="fill:#ffffff;fill-opacity:0.78431373;fill-rule:evenodd;stroke:none;stroke-width:1.00000012px;stroke-linecap:butt;stroke-linejoin:miter;stroke-opacity:1" />
    <path
       d="M 127.00001,126 L 125.00001,206 L 123,126"
       id="HourHand"
       style="fill:#ffffff;fill-opacity:0.78431373;fill-rule:evenodd;stroke:none;stroke-width:1.00000012px;stroke-linecap:butt;stroke-linejoin:miter;stroke-opacity:1" />
    <path
       d="M 755.89714,329.94736 A 0.9722718,0.70710677 0 1 1 753.95259,329.94736 A 0.9722718,0.70710677 0 1 1 755.89714,329.94736 z"
       transform="matrix(-0.5142595,0,0,-0.7071068,513.22728,358.30802)"
       id="HandCenterScrew"
       style="fill:#ffffff;fill-opacity:1;stroke:none;stroke-width:3.31662464;stroke-miterlimit:4;stroke-dasharray:none;stroke-opacity:0.78431373" />
  </g>
</svg>
