<?xml version="1.0" encoding="UTF-8" standalone="no"?>
<!-- Created with Inkscape (http://www.inkscape.org/) -->
<svg
   xmlns:svg="http://www.w3.org/2000/svg"
   xmlns="http://www.w3.org/2000/svg"
   xmlns:xlink="http://www.w3.org/1999/xlink"
   version="1.0"
   width="300"
   height="300"
   id="svg3465">
  <defs
     id="defs3467">
    <linearGradient
       id="linearGradient3603">
      <stop
         style="stop-color:#ffffff;stop-opacity:0.58823532"
         offset="0"
         id="stop3605" />
      <stop
         style="stop-color:#ffffff;stop-opacity:0"
         offset="1"
         id="stop3607" />
    </linearGradient>
    <linearGradient
       id="linearGradient3522">
      <stop
         style="stop-color:#000000;stop-opacity:1"
         offset="0"
         id="stop3524" />
      <stop
         style="stop-color:#000000;stop-opacity:1"
         offset="0.95999998"
         id="stop3528" />
      <stop
         style="stop-color:#000000;stop-opacity:0"
         offset="1"
         id="stop3526" />
    </linearGradient>
    <linearGradient
       id="linearGradient3502">
      <stop
         style="stop-color:#ffffff;stop-opacity:1"
         offset="0"
         id="stop3504" />
      <stop
         style="stop-color:#ffffff;stop-opacity:0.19607843"
         offset="1"
         id="stop3506" />
    </linearGradient>
    <linearGradient
       x1="490"
       y1="277"
       x2="533.57776"
       y2="386.35556"
       id="linearGradient3444"
       xlink:href="#linearGradient3502"
       gradientUnits="userSpaceOnUse"
       gradientTransform="matrix(1.2162162,0,0,1.2162162,-55.945946,-108.89189)"
       spreadMethod="pad" />
    <linearGradient
       id="linearGradient3295">
      <stop
         style="stop-color:#ffffff;stop-opacity:0.23529412"
         offset="0"
         id="stop3297" />
      <stop
         style="stop-color:#ffffff;stop-opacity:0"
         offset="1"
         id="stop3299" />
    </linearGradient>
    <linearGradient
       id="linearGradient5469">
      <stop
         style="stop-color:#0f0f0f;stop-opacity:1"
         offset="0"
         id="stop5471" />
      <stop
         style="stop-color:#000000;stop-opacity:1"
         offset="1"
         id="stop5473" />
    </linearGradient>
    <radialGradient
       cx="564"
       cy="351"
       r="74.732674"
       fx="564"
       fy="351"
       id="radialGradient3257"
       xlink:href="#linearGradient3522"
       gradientUnits="userSpaceOnUse" />
    <radialGradient
       cx="564"
       cy="351"
       r="74.371857"
       fx="564"
       fy="351"
       id="radialGradient3259"
       xlink:href="#linearGradient5469"
       gradientUnits="userSpaceOnUse" />
    <radialGradient
       cx="489.58658"
       cy="276.58658"
       r="74.371857"
       fx="489.58658"
       fy="276.58658"
       id="radialGradient3261"
       xlink:href="#linearGradient3295"
       gradientUnits="userSpaceOnUse"
       gradientTransform="matrix(-1.4870833e-7,1.5675419,-2.0011175,-1.8984044e-7,1043.0689,-490.86084)"
       spreadMethod="reflect" />
    <linearGradient
       x1="489.58658"
       y1="276.58658"
       x2="575.57544"
       y2="366.7095"
       id="linearGradient3263"
       xlink:href="#linearGradient3603"
       gradientUnits="userSpaceOnUse"
       spreadMethod="reflect" />
  </defs>
  <g
     id="layer1">
    <g
       id="ClockFace">
      <path
         d="M 638 351 A 74 74 0 1 1  490,351 A 74 74 0 1 1  638 351 z"
         transform="matrix(1.3445946,0,0,1.3445946,-608.35137,-321.95272)"
         style="opacity:0.8;fill:url(#radialGradient3259);fill-opacity:1;stroke:#000000;stroke-width:0.74371856;stroke-miterlimit:4;stroke-dasharray:none;stroke-opacity:1"
         id="path2276" />
      <path
         d="M 638 351 A 74 74 0 1 1  490,351 A 74 74 0 1 1  638 351 z"
         transform="matrix(1.2094595,0,0,1.2094595,-532.13513,-274.52027)"
         style="fill:url(#radialGradient3261);fill-opacity:1;stroke:url(#linearGradient3263);stroke-width:0.82681561;stroke-miterlimit:4;stroke-dasharray:none;stroke-opacity:0.19491523"
         id="path3273" />
      <path
         d="M 638 351 A 74 74 0 1 1  490,351 A 74 74 0 1 1  638 351 z"
         transform="matrix(1.3445946,0,0,1.3445946,-608.35137,-321.95273)"
         style="fill:none;fill-opacity:1;stroke:#000000;stroke-width:0.74371856;stroke-miterlimit:4;stroke-dasharray:none;stroke-opacity:0.78431373"
         id="path3530" />
      <path
         d="M 638 351 A 74 74 0 1 1  490,351 A 74 74 0 1 1  638 351 z"
         transform="matrix(1.3243243,0,0,1.3243243,-596.91891,-314.83783)"
         style="fill:none;fill-opacity:1;stroke:#ffffff;stroke-width:1.5102042;stroke-miterlimit:4;stroke-dasharray:none;stroke-opacity:0.15686275"
         id="path3271" />
      <path
         d="M 638 351 A 74 74 0 1 1  490,351 A 74 74 0 1 1  638 351 z"
         transform="matrix(1.3648649,0,0,1.3648649,-619.7838,-329.06758)"
         style="fill:none;fill-opacity:1;stroke:url(#radialGradient3257);stroke-width:1.46534657;stroke-miterlimit:4;stroke-dasharray:none;stroke-opacity:1"
         id="path3265" />
    </g>
    <g
       transform="translate(-480.00001,-168.00002)"
       id="Glass">
      <path
         d="M 638 351 A 74 74 0 1 1  490,351 A 74 74 0 1 1  638 351 z"
         transform="matrix(1.2162162,0,0,1.2162162,-55.945946,-108.89189)"
         style="opacity:1;fill:none;fill-opacity:1;stroke:none;stroke-width:0.82681561;stroke-miterlimit:4;stroke-dasharray:none;stroke-opacity:0.19491523"
         id="path3446" />
      <path
         d="M 630,228 C 580.32,228 539.99999,268.32 540,318 C 540,322.35129 540.30843,326.62562 540.90625,330.8125 C 555.59211,335.46649 571.45725,338 588,338 C 640.44532,338 686.04098,312.46846 709.0625,275 C 693.79624,247.01242 664.10533,228 630,228 z "
         style="opacity:0.1;fill:url(#linearGradient3444);fill-opacity:1;stroke:none;stroke-width:0.82681561;stroke-miterlimit:4;stroke-dasharray:none;stroke-opacity:0.19491523"
         id="path3411" />
    </g>
    <rect
       width="100"
       height="1"
       x="137.99998"
       y="-150.49998"
       transform="matrix(0,1,-1,0,0,0)"
       style="opacity:0.8;fill:#ffffff;fill-opacity:0.78431373;stroke:none;stroke-width:1;stroke-miterlimit:4;stroke-dasharray:none;stroke-opacity:0.19491523"
       id="SecondHand" />
    <path
       d="M 149.99998,137.99998 L 151.99998,150.24998 L 149.99998,235.99998 L 147.99998,150.24998 L 149.99998,137.99998"
       style="fill:#ffffff;fill-opacity:0.78431373;fill-rule:evenodd;stroke:none;stroke-width:1.00000012px;stroke-linecap:butt;stroke-linejoin:miter;stroke-opacity:1"
       id="MinuteHand" />
    <path
       d="M 149.99998,141.99998 L 151.99998,149.99998 L 149.99998,205.99998 L 147.99998,149.99998 L 149.99998,141.99998"
       style="fill:#ffffff;fill-opacity:0.78431373;fill-rule:evenodd;stroke:none;stroke-width:1.00000012px;stroke-linecap:butt;stroke-linejoin:miter;stroke-opacity:1"
       id="HourHand" />
    <path
       d="M 755.89714 329.94736 A 0.9722718 0.70710677 0 1 1  753.95259,329.94736 A 0.9722718 0.70710677 0 1 1  755.89714 329.94736 z"
       transform="matrix(-0.5142595,0,0,-0.7071068,538.22728,383.308)"
       style="fill:#ffffff;fill-opacity:1;stroke:none;stroke-width:3.31662464;stroke-miterlimit:4;stroke-dasharray:none;stroke-opacity:0.78431373"
       id="HandCenterScrew" />
  </g>
</svg>
