<?xml version="1.0" encoding="UTF-8" standalone="no"?>
<!-- Created with Inkscape (http://www.inkscape.org/) -->
<svg
   xmlns:dc="http://purl.org/dc/elements/1.1/"
   xmlns:cc="http://creativecommons.org/ns#"
   xmlns:rdf="http://www.w3.org/1999/02/22-rdf-syntax-ns#"
   xmlns:svg="http://www.w3.org/2000/svg"
   xmlns="http://www.w3.org/2000/svg"
   xmlns:xlink="http://www.w3.org/1999/xlink"
   xmlns:sodipodi="http://sodipodi.sourceforge.net/DTD/sodipodi-0.dtd"
   xmlns:inkscape="http://www.inkscape.org/namespaces/inkscape"
   width="128"
   height="128"
   id="svg2"
   sodipodi:version="0.32"
   inkscape:version="0.46"
   version="1.0"
   sodipodi:docbase="/home/ivan/Documents/Art/Plasma/Theme 02/slim-glow/widgets"
   sodipodi:docname="notes.svg"
   inkscape:output_extension="org.inkscape.output.svg.inkscape"
   inkscape:export-filename="/home/david/Desktop/basket.png"
   inkscape:export-xdpi="90"
   inkscape:export-ydpi="90">
  <defs
     id="defs4">
    <inkscape:perspective
       sodipodi:type="inkscape:persp3d"
       inkscape:vp_x="0 : 64 : 1"
       inkscape:vp_y="0 : 1000 : 0"
       inkscape:vp_z="128 : 64 : 1"
       inkscape:persp3d-origin="64 : 42.666667 : 1"
       id="perspective12113" />
    <linearGradient
       id="linearGradient12825">
      <stop
         style="stop-color:#000000;stop-opacity:0.48927039;"
         offset="0"
         id="stop12827" />
      <stop
         style="stop-color:#000000;stop-opacity:0;"
         offset="1"
         id="stop12829" />
    </linearGradient>
    <linearGradient
       id="linearGradient12803">
      <stop
         style="stop-color:#000000;stop-opacity:0.1392405;"
         offset="0"
         id="stop12805" />
      <stop
         style="stop-color:#000000;stop-opacity:0;"
         offset="1"
         id="stop12807" />
    </linearGradient>
    <linearGradient
       id="linearGradient3337"
       inkscape:collect="always">
      <stop
         id="stop3339"
         offset="0"
         style="stop-color:#ffffbf;stop-opacity:1" />
      <stop
         id="stop3341"
         offset="1"
         style="stop-color:#f2c200;stop-opacity:0.9254902" />
    </linearGradient>
    <linearGradient
       inkscape:collect="always"
       id="linearGradient3208">
      <stop
         style="stop-color:#ffdfbf;stop-opacity:1;"
         offset="0"
         id="stop3210" />
      <stop
         style="stop-color:#ffdfbf;stop-opacity:0;"
         offset="1"
         id="stop3212" />
    </linearGradient>
    <linearGradient
       inkscape:collect="always"
       id="linearGradient3182">
      <stop
         style="stop-color:#e3ad00;stop-opacity:1;"
         offset="0"
         id="stop3184" />
      <stop
         style="stop-color:#e3ad00;stop-opacity:0;"
         offset="1"
         id="stop3186" />
    </linearGradient>
    <linearGradient
       id="linearGradient3172">
      <stop
         style="stop-color:#f4f4ed;stop-opacity:1;"
         offset="0"
         id="stop3174" />
      <stop
         style="stop-color:#e9e9d4;stop-opacity:0.97254902;"
         offset="1"
         id="stop3176" />
    </linearGradient>
    <linearGradient
       id="linearGradient3205">
      <stop
         id="stop3207"
         offset="0"
         style="stop-color:#333333;stop-opacity:1;" />
      <stop
         style="stop-color:#383838;stop-opacity:1;"
         offset="0.39204547"
         id="stop3213" />
      <stop
         id="stop3215"
         offset="0.50180787"
         style="stop-color:#111111;stop-opacity:1;" />
      <stop
         style="stop-color:#333333;stop-opacity:1;"
         offset="0.65033931"
         id="stop3217" />
      <stop
         id="stop3219"
         offset="0.70596713"
         style="stop-color:#2b2b2b;stop-opacity:1;" />
      <stop
         id="stop3209"
         offset="1"
         style="stop-color:#333333;stop-opacity:1;" />
    </linearGradient>
    <linearGradient
       id="linearGradient3286">
      <stop
         id="stop3288"
         offset="0"
         style="stop-color:#d4d4d4;stop-opacity:1;" />
      <stop
         style="stop-color:#eeeeee;stop-opacity:1;"
         offset="0.35795453"
         id="stop3294" />
      <stop
         id="stop3296"
         offset="0.75"
         style="stop-color:#c0c0c0;stop-opacity:1;" />
      <stop
         id="stop3290"
         offset="1"
         style="stop-color:#6b6b6b;stop-opacity:1;" />
    </linearGradient>
    <linearGradient
       id="linearGradient3300">
      <stop
         id="stop3302"
         offset="0"
         style="stop-color:#000000;stop-opacity:0;" />
      <stop
         style="stop-color:#000000;stop-opacity:0.49803922;"
         offset="0.5"
         id="stop3308" />
      <stop
         id="stop3304"
         offset="1"
         style="stop-color:#000000;stop-opacity:0;" />
    </linearGradient>
    <linearGradient
       id="linearGradient3357">
      <stop
         id="stop3359"
         offset="0"
         style="stop-color:#242424;stop-opacity:1;" />
      <stop
         style="stop-color:#000000;stop-opacity:0.66666669;"
         offset="0.5"
         id="stop3365" />
      <stop
         id="stop3361"
         offset="1"
         style="stop-color:#000000;stop-opacity:1;" />
    </linearGradient>
    <linearGradient
       id="linearGradient3371">
      <stop
         style="stop-color:#f6f6f6;stop-opacity:1;"
         offset="0"
         id="stop3373" />
      <stop
         id="stop3375"
         offset="0.5"
         style="stop-color:#ffffff;stop-opacity:1;" />
      <stop
         style="stop-color:#525252;stop-opacity:1;"
         offset="1"
         id="stop3377" />
    </linearGradient>
    <linearGradient
       inkscape:collect="always"
       xlink:href="#linearGradient3182"
       id="linearGradient3321"
       gradientUnits="userSpaceOnUse"
       x1="97.2864"
       y1="17.9168"
       x2="83.126373"
       y2="33.30563"
       gradientTransform="translate(23.5,-6)" />
    <radialGradient
       inkscape:collect="always"
       xlink:href="#linearGradient3208"
       id="radialGradient3324"
       gradientUnits="userSpaceOnUse"
       gradientTransform="matrix(1.8764536,-1.083371,0.8672819,1.5021764,-25.6389,3.9497671)"
       cx="39.863251"
       cy="17.107885"
       fx="39.863251"
       fy="17.107885"
       r="44" />
    <radialGradient
       inkscape:collect="always"
       xlink:href="#linearGradient3172"
       id="radialGradient3327"
       gradientUnits="userSpaceOnUse"
       gradientTransform="matrix(-1.8833181,-0.5406655,0.3409091,-1.1875,158.00236,121.76314)"
       cx="52.213589"
       cy="50.841812"
       fx="51.795498"
       fy="36.574078"
       r="44" />
    <radialGradient
       inkscape:collect="always"
       xlink:href="#linearGradient3337"
       id="radialGradient3330"
       gradientUnits="userSpaceOnUse"
       gradientTransform="matrix(1.4197981,0,0,1.6627218,5.1818216,-25.254437)"
       cx="41.427143"
       cy="20"
       fx="41.427143"
       fy="20"
       r="44" />
    <linearGradient
       inkscape:collect="always"
       xlink:href="#linearGradient12803"
       id="linearGradient12809"
       x1="97"
       y1="9"
       x2="94.5"
       y2="19.75"
       gradientUnits="userSpaceOnUse" />
    <linearGradient
       inkscape:collect="always"
       xlink:href="#linearGradient12803"
       id="linearGradient12813"
       gradientUnits="userSpaceOnUse"
       x1="102.25"
       y1="9"
       x2="96"
       y2="19.25" />
    <linearGradient
       inkscape:collect="always"
       xlink:href="#linearGradient12803"
       id="linearGradient12817"
       gradientUnits="userSpaceOnUse"
       x1="110.25"
       y1="11.5"
       x2="103.5"
       y2="19.5" />
    <linearGradient
       inkscape:collect="always"
       xlink:href="#linearGradient12803"
       id="linearGradient12821"
       gradientUnits="userSpaceOnUse"
       x1="117.25"
       y1="12.75"
       x2="106.5"
       y2="17" />
    <radialGradient
       inkscape:collect="always"
       xlink:href="#linearGradient12825"
       id="radialGradient12831"
       cx="12.207329"
       cy="120.01994"
       fx="12.207329"
       fy="120.01994"
       r="2.616883"
       gradientUnits="userSpaceOnUse" />
    <linearGradient
       inkscape:collect="always"
       xlink:href="#linearGradient12825"
       id="linearGradient12841"
       x1="49.544815"
       y1="118.72926"
       x2="49.544815"
       y2="122.72926"
       gradientUnits="userSpaceOnUse"
       gradientTransform="matrix(1.9027715,0,0,1,-28.561366,0.63678)" />
    <radialGradient
       inkscape:collect="always"
       xlink:href="#linearGradient12825"
       id="radialGradient12845"
       gradientUnits="userSpaceOnUse"
       cx="12.207329"
       cy="120.01994"
       fx="12.207329"
       fy="120.01994"
       r="2.616883" />
    <linearGradient
       inkscape:collect="always"
       xlink:href="#linearGradient12825"
       id="linearGradient12849"
       gradientUnits="userSpaceOnUse"
       gradientTransform="matrix(1.6565611,0,0,1,-156.73579,-1.6697781)"
       x1="49.544815"
       y1="118.72926"
       x2="49.544815"
       y2="122.72926" />
    <radialGradient
       inkscape:collect="always"
       xlink:href="#linearGradient12825"
       id="radialGradient12853"
       gradientUnits="userSpaceOnUse"
       cx="12.207329"
       cy="120.01994"
       fx="12.207329"
       fy="120.01994"
       r="2.616883" />
    <radialGradient
       inkscape:collect="always"
       xlink:href="#linearGradient12825"
       id="radialGradient12861"
       gradientUnits="userSpaceOnUse"
       cx="12.207329"
       cy="120.01994"
       fx="12.207329"
       fy="120.01994"
       r="2.616883" />
    <linearGradient
       inkscape:collect="always"
       xlink:href="#linearGradient12825"
       id="linearGradient12863"
       gradientUnits="userSpaceOnUse"
       gradientTransform="matrix(1.9027715,0,0,1,-28.561366,0.63678)"
       x1="49.544815"
       y1="118.72926"
       x2="49.544815"
       y2="122.72926" />
    <radialGradient
       inkscape:collect="always"
       xlink:href="#linearGradient12825"
       id="radialGradient12865"
       gradientUnits="userSpaceOnUse"
       cx="12.207329"
       cy="120.01994"
       fx="12.207329"
       fy="120.01994"
       r="2.616883" />
    <linearGradient
       inkscape:collect="always"
       xlink:href="#linearGradient12825"
       id="linearGradient12867"
       gradientUnits="userSpaceOnUse"
       gradientTransform="matrix(1.6565611,0,0,1,-156.73579,-1.6697781)"
       x1="49.544815"
       y1="118.72926"
       x2="49.544815"
       y2="122.72926" />
    <radialGradient
       inkscape:collect="always"
       xlink:href="#linearGradient12825"
       id="radialGradient12877"
       gradientUnits="userSpaceOnUse"
       cx="12.207329"
       cy="120.01994"
       fx="12.207329"
       fy="120.01994"
       r="2.616883" />
    <linearGradient
       inkscape:collect="always"
       xlink:href="#linearGradient12825"
       id="linearGradient12879"
       gradientUnits="userSpaceOnUse"
       gradientTransform="matrix(1.9027715,0,0,1,-28.561366,0.63678)"
       x1="49.544815"
       y1="118.72926"
       x2="49.544815"
       y2="122.72926" />
    <radialGradient
       inkscape:collect="always"
       xlink:href="#linearGradient12825"
       id="radialGradient12881"
       gradientUnits="userSpaceOnUse"
       cx="12.207329"
       cy="120.01994"
       fx="12.207329"
       fy="120.01994"
       r="2.616883" />
    <linearGradient
       inkscape:collect="always"
       xlink:href="#linearGradient12825"
       id="linearGradient12883"
       gradientUnits="userSpaceOnUse"
       gradientTransform="matrix(1.6565611,0,0,1,-156.73579,-1.6697781)"
       x1="49.544815"
       y1="118.72926"
       x2="49.544815"
       y2="122.72926" />
    <radialGradient
       inkscape:collect="always"
       xlink:href="#linearGradient12825"
       id="radialGradient12885"
       gradientUnits="userSpaceOnUse"
       cx="12.207329"
       cy="120.01994"
       fx="12.207329"
       fy="120.01994"
       r="2.616883" />
  </defs>
  <sodipodi:namedview
     id="base"
     pagecolor="#ffffff"
     bordercolor="#666666"
     borderopacity="1.0"
     gridtolerance="10000"
     guidetolerance="10"
     objecttolerance="10"
     inkscape:pageopacity="0.0"
     inkscape:pageshadow="2"
     inkscape:zoom="4.7409334"
     inkscape:cx="28.198456"
     inkscape:cy="60.256294"
     inkscape:document-units="px"
     inkscape:current-layer="layer1"
     width="128px"
     height="128px"
     showgrid="false"
     inkscape:grid-points="true"
     showborder="false"
     inkscape:window-width="1440"
     inkscape:window-height="813"
     inkscape:window-x="0"
     inkscape:window-y="27">
    <inkscape:grid
       id="GridFromPre046Settings"
       type="xygrid"
       originx="0px"
       originy="0px"
       spacingx="4px"
       spacingy="4px"
       color="#0000ff"
       empcolor="#0000ff"
       opacity="0.2"
       empopacity="0.4"
       empspacing="2" />
  </sodipodi:namedview>
  <metadata
     id="metadata7">
    <rdf:RDF>
      <cc:Work
         rdf:about="">
        <dc:format>image/svg+xml</dc:format>
        <dc:type
           rdf:resource="http://purl.org/dc/dcmitype/StillImage" />
      </cc:Work>
    </rdf:RDF>
  </metadata>
  <g
     inkscape:label="Layer 1"
     inkscape:groupmode="layer"
     id="layer1">
    <g
       id="g12869"
       transform="translate(0.9453554,-1.6874314)">
      <g
         transform="translate(5.0427063e-5,0.7042433)"
         id="g12855">
        <path
           sodipodi:type="arc"
           style="opacity:1;fill:url(#radialGradient12877);fill-opacity:1;stroke:none;stroke-width:3;stroke-linecap:butt;stroke-miterlimit:4;stroke-dasharray:none;stroke-dashoffset:0;stroke-opacity:1"
           id="path12823"
           sodipodi:cx="12.207329"
           sodipodi:cy="120.01994"
           sodipodi:rx="2.616883"
           sodipodi:ry="2.616883"
           d="M 14.824212,120.01994 A 2.616883,2.616883 0 0 1 12.207329,122.63683 L 12.207329,120.01994 z"
           transform="matrix(0,1.528536,-1.528536,0,197.81749,100.7067)"
           sodipodi:start="0"
           sodipodi:end="1.5707963" />
        <rect
           style="opacity:1;fill:url(#linearGradient12879);fill-opacity:1;stroke:none;stroke-width:3;stroke-linecap:butt;stroke-miterlimit:4;stroke-dasharray:none;stroke-dashoffset:0;stroke-opacity:1"
           id="rect12833"
           width="102.6968"
           height="4"
           x="14.362689"
           y="119.36604" />
        <path
           sodipodi:end="1.5707963"
           sodipodi:start="0"
           transform="matrix(1.528536,0,0,1.528536,98.400145,-64.088763)"
           d="M 14.824212,120.01994 A 2.616883,2.616883 0 0 1 12.207329,122.63683 L 12.207329,120.01994 z"
           sodipodi:ry="2.616883"
           sodipodi:rx="2.616883"
           sodipodi:cy="120.01994"
           sodipodi:cx="12.207329"
           id="path12843"
           style="opacity:1;fill:url(#radialGradient12881);fill-opacity:1;stroke:none;stroke-width:3;stroke-linecap:butt;stroke-miterlimit:4;stroke-dasharray:none;stroke-dashoffset:0;stroke-opacity:1"
           sodipodi:type="arc" />
        <rect
           y="117.05949"
           x="-119.36594"
           height="4"
           width="89.408279"
           id="rect12847"
           style="opacity:1;fill:url(#linearGradient12883);fill-opacity:1;stroke:none;stroke-width:3;stroke-linecap:butt;stroke-miterlimit:4;stroke-dasharray:none;stroke-dashoffset:0;stroke-opacity:1"
           transform="matrix(0,-1,1,0,0,0)" />
      </g>
      <path
         sodipodi:end="1.5707963"
         sodipodi:start="0"
         transform="matrix(0,-4.6720575,1.528536,0,-66.395267,87.695143)"
         d="M 14.824212,120.01994 A 2.616883,2.616883 0 0 1 12.207329,122.63683 L 12.207329,120.01994 z"
         sodipodi:ry="2.616883"
         sodipodi:rx="2.616883"
         sodipodi:cy="120.01994"
         sodipodi:cx="12.207329"
         id="path12851"
         style="opacity:1;fill:url(#radialGradient12885);fill-opacity:1;stroke:none;stroke-width:3;stroke-linecap:butt;stroke-miterlimit:4;stroke-dasharray:none;stroke-dashoffset:0;stroke-opacity:1"
         sodipodi:type="arc" />
    </g>
    <path
       sodipodi:nodetypes="ccccccc"
       id="path3194"
       d="M 8,120 L 120,120 L 120,37 C 120,28.25627 119.51929,21.185177 117.952,12.4816 C 110.58116,9.72128 101.3368,9 92,9 L 8,9 L 8,120 z "
       style="fill:url(#radialGradient3327);fill-opacity:1.0;stroke:none;stroke-width:1;stroke-linecap:round;stroke-linejoin:round;stroke-miterlimit:4;stroke-dashoffset:0;stroke-opacity:1" />
    <path
       style="fill:url(#linearGradient12809);fill-opacity:1.0;stroke:none;stroke-width:1;stroke-linecap:round;stroke-linejoin:round;stroke-miterlimit:4;stroke-dashoffset:0;stroke-opacity:1"
       d="M 8,60 L 120,60 L 120,37 C 120,28.25627 119.51929,21.185177 117.952,12.4816 C 110.58116,9.72128 101.3368,9 92,9 L 8,9 L 8,60 z "
       id="path12801"
       sodipodi:nodetypes="ccccccc" />
    <path
       sodipodi:nodetypes="ccccccc"
       id="path12811"
       d="M 8,60 L 120,60 L 120,37 C 120,28.25627 119.51929,21.185177 117.952,12.4816 C 110.58116,9.72128 101.3368,9 92,9 L 8,9 L 8,60 z "
       style="fill:url(#linearGradient12813);fill-opacity:1.0;stroke:none;stroke-width:1;stroke-linecap:round;stroke-linejoin:round;stroke-miterlimit:4;stroke-dashoffset:0;stroke-opacity:1" />
    <path
       style="fill:url(#linearGradient12817);fill-opacity:1.0;stroke:none;stroke-width:1;stroke-linecap:round;stroke-linejoin:round;stroke-miterlimit:4;stroke-dashoffset:0;stroke-opacity:1"
       d="M 8,60 L 120,60 L 120,37 C 120,28.25627 119.51929,21.185177 117.952,12.4816 C 110.58116,9.72128 101.3368,9 92,9 L 8,9 L 8,60 z "
       id="path12815"
       sodipodi:nodetypes="ccccccc" />
    <path
       style="font-size:10px;font-style:italic;font-variant:normal;font-weight:normal;font-stretch:normal;text-align:start;line-height:125%;writing-mode:lr-tb;text-anchor:start;fill:#ffffff;fill-opacity:0.49767444;stroke:none;stroke-width:1px;stroke-linecap:butt;stroke-linejoin:miter;stroke-opacity:1;font-family:URW Chancery L;-inkscape-font-specification:URW Chancery L Italic"
       d="M 79.317747,115.45079 L 78.877747,116.49079 C 79.227746,116.96079 79.697747,117.18079 80.347747,117.18079 C 81.877745,117.18079 83.377747,115.93079 83.377747,114.66079 C 83.377747,114.25079 83.217746,114.04079 82.477747,113.46079 C 81.747747,112.89079 81.627747,112.72079 81.627747,112.29079 C 81.627747,111.64079 82.117747,111.08079 82.707747,111.08079 C 83.127746,111.08079 83.277747,111.26079 83.387747,111.90079 L 84.047747,111.43079 C 83.987747,110.88079 83.687746,110.61079 83.157747,110.61079 C 82.127748,110.61079 80.957747,111.75079 80.957747,112.74079 C 80.957747,113.19079 81.167747,113.52079 81.747747,113.97079 C 82.427746,114.51079 82.607747,114.78079 82.607747,115.24079 C 82.607747,116.02079 81.857746,116.71079 80.987747,116.71079 C 80.557747,116.71079 80.117746,116.52079 79.847747,116.22079 C 79.637747,115.99079 79.557747,115.78079 79.477747,115.34079 L 79.317747,115.45079 M 86.557122,115.18079 C 86.417122,115.26079 86.327122,115.32079 86.287122,115.34079 C 85.567122,115.79079 85.487121,115.83079 85.347122,115.83079 C 85.257122,115.83079 85.167122,115.71079 85.167122,115.57079 L 85.167122,115.48079 L 85.167122,115.39079 C 85.167122,115.21079 85.617122,113.27079 85.987122,111.86079 C 86.377121,110.39079 86.467122,110.21079 86.907122,110.21079 C 87.037121,110.21079 87.137122,110.22079 87.397122,110.28079 L 87.827122,109.75079 C 87.617122,109.70079 87.507121,109.69079 87.377122,109.69079 C 86.977122,109.69079 86.657121,109.85079 86.177122,110.28079 C 85.737122,110.68079 85.627121,110.83079 85.497122,111.19079 C 85.417122,111.43079 85.197121,112.24079 85.097122,112.68079 L 84.377122,115.81079 C 84.367122,115.87079 84.357122,115.93079 84.357122,115.99079 C 84.357122,116.29079 84.527122,116.60079 84.687122,116.60079 L 84.747122,116.60079 L 84.777122,116.60079 C 84.877121,116.60079 85.297123,116.31079 86.557122,115.40079 L 86.557122,115.18079 M 88.309465,111.53079 C 88.599465,111.27079 88.619466,111.25079 88.959465,110.99079 C 88.899465,110.87079 88.849465,110.79079 88.829465,110.76079 C 88.769465,110.64079 88.759465,110.63079 88.679465,110.44079 C 88.659465,110.40079 88.639465,110.36079 88.619465,110.31079 C 88.569465,110.35079 88.509465,110.39079 88.479465,110.42079 C 88.439465,110.46079 88.359465,110.52079 88.259465,110.60079 C 88.209465,110.64079 88.139465,110.69079 88.049465,110.75079 C 88.009465,110.78079 87.969465,110.81079 87.929465,110.83079 C 87.999465,111.05079 88.089466,111.21079 88.309465,111.53079 M 88.999465,115.31079 C 88.049466,115.82079 88.029465,115.83079 87.899465,115.83079 C 87.789465,115.83079 87.719465,115.72079 87.719465,115.55079 C 87.719465,115.45079 87.749465,115.26079 87.809465,115.04079 C 88.319465,112.94079 88.419465,112.54079 88.419465,112.46079 C 88.419465,112.40079 88.369465,112.36079 88.299465,112.36079 C 88.129466,112.36079 87.539465,112.69079 86.719465,113.24079 L 86.699465,113.52079 C 87.289465,113.20079 87.339465,113.18079 87.429465,113.18079 C 87.509465,113.18079 87.549465,113.24079 87.549465,113.36079 C 87.549465,113.49079 87.519465,113.63079 87.369465,114.20079 C 86.899466,115.95079 86.899465,115.95079 86.899465,116.20079 C 86.899465,116.44079 86.999465,116.60079 87.139465,116.60079 C 87.309465,116.60079 87.579466,116.47079 88.109465,116.13079 C 88.299465,116.01079 88.489466,115.89079 88.679465,115.76079 C 88.769465,115.71079 88.859465,115.65079 88.959465,115.59079 L 88.999465,115.31079 M 89.921809,116.30079 L 90.561809,113.87079 C 91.231808,113.42079 91.641809,113.18079 91.771809,113.18079 C 91.851809,113.18079 91.901809,113.27079 91.901809,113.40079 C 91.901809,113.70079 91.521809,115.22079 91.101809,116.57079 L 91.861809,116.30079 L 92.481809,113.80079 C 93.061809,113.43079 93.601809,113.13079 93.721809,113.13079 C 93.801809,113.13079 93.851809,113.20079 93.851809,113.32079 C 93.851809,113.54079 93.761809,113.95079 93.491809,115.02079 C 93.331809,115.64079 93.281809,115.89079 93.281809,116.12079 C 93.281809,116.33079 93.341809,116.44079 93.521809,116.57079 C 94.111808,116.28079 94.61181,115.96079 95.221809,115.48079 L 95.221809,115.25079 C 95.121809,115.30079 95.011809,115.37079 94.881809,115.46079 C 94.521809,115.69079 94.351809,115.77079 94.231809,115.77079 C 94.121809,115.77079 94.051809,115.67079 94.051809,115.50079 C 94.051809,115.28079 94.181809,114.71079 94.381809,114.01079 C 94.681809,112.98079 94.761809,112.66079 94.761809,112.51079 C 94.761809,112.41079 94.701809,112.36079 94.601809,112.36079 C 94.421809,112.36079 93.801808,112.68079 92.581809,113.40079 C 92.611809,113.29079 92.621809,113.21079 92.631809,113.17079 C 92.751809,112.67079 92.781809,112.53079 92.781809,112.47079 C 92.781809,112.40079 92.731809,112.36079 92.651809,112.36079 C 92.501809,112.36079 91.981808,112.64079 90.981809,113.28079 L 90.661809,113.48079 C 90.841809,112.75079 90.881809,112.57079 90.881809,112.50079 C 90.881809,112.42079 90.821809,112.36079 90.731809,112.36079 C 90.611809,112.36079 89.821808,112.79079 89.171809,113.20079 L 89.101809,113.48079 C 89.651809,113.21079 89.731809,113.18079 89.841809,113.18079 C 89.931809,113.18079 89.991809,113.26079 89.991809,113.37079 C 89.991809,113.53079 89.631809,115.01079 89.211809,116.57079 L 89.921809,116.30079 M 102.51025,114.07079 L 102.72025,114.07079 L 103.18025,113.79079 C 102.78025,113.76079 101.86025,113.74079 100.93025,113.74079 L 100.32025,114.05079 L 100.32025,114.13079 C 100.82025,114.10079 101.31025,114.08079 101.78025,114.07079 L 101.42025,115.51079 C 101.00025,115.91079 100.40025,116.18079 99.940247,116.18079 C 99.200247,116.18079 98.740247,115.60079 98.740247,114.69079 C 98.740247,112.74079 100.06025,110.92079 101.46025,110.92079 C 101.87025,110.92079 102.22025,111.09079 102.41025,111.39079 C 102.54025,111.59079 102.59025,111.76079 102.65025,112.18079 L 103.39025,111.35079 C 103.20025,110.78079 102.83025,110.56079 102.07025,110.56079 C 100.98025,110.56079 99.990246,111.01079 99.190247,111.87079 C 98.380247,112.74079 97.870247,113.97079 97.870247,115.02079 C 97.870247,115.99079 98.400247,116.59079 99.260247,116.59079 C 99.880246,116.59079 100.41025,116.43079 101.30025,115.98079 C 101.15025,116.58079 100.97025,117.23079 100.88025,117.45079 C 100.68025,117.99079 100.39025,118.21079 99.860247,118.21079 C 99.570247,118.21079 99.080246,118.17079 98.780247,118.12079 L 98.360247,118.78079 C 98.720246,118.82079 98.880247,118.83079 99.080247,118.83079 C 99.880246,118.83079 100.56025,118.47079 101.22025,117.70079 C 101.65025,117.21079 101.83025,116.79079 102.12025,115.63079 L 102.51025,114.07079 M 105.95165,115.18079 C 105.81165,115.26079 105.72165,115.32079 105.68165,115.34079 C 104.96165,115.79079 104.88165,115.83079 104.74165,115.83079 C 104.65165,115.83079 104.56165,115.71079 104.56165,115.57079 L 104.56165,115.48079 L 104.56165,115.39079 C 104.56165,115.21079 105.01165,113.27079 105.38165,111.86079 C 105.77165,110.39079 105.86165,110.21079 106.30165,110.21079 C 106.43165,110.21079 106.53165,110.22079 106.79165,110.28079 L 107.22165,109.75079 C 107.01165,109.70079 106.90165,109.69079 106.77165,109.69079 C 106.37165,109.69079 106.05165,109.85079 105.57165,110.28079 C 105.13165,110.68079 105.02165,110.83079 104.89165,111.19079 C 104.81165,111.43079 104.59165,112.24079 104.49165,112.68079 L 103.77165,115.81079 C 103.76165,115.87079 103.75165,115.93079 103.75165,115.99079 C 103.75165,116.29079 103.92165,116.60079 104.08165,116.60079 L 104.14165,116.60079 L 104.17165,116.60079 C 104.27165,116.60079 104.69165,116.31079 105.95165,115.40079 L 105.95165,115.18079 M 108.874,112.36079 C 108.474,112.36079 107.834,112.65079 107.244,113.09079 C 106.604,113.57079 106.154,114.61079 106.154,115.60079 C 106.154,116.21079 106.494,116.60079 107.024,116.60079 C 107.304,116.60079 107.584,116.50079 108.044,116.26079 C 108.544,115.98079 108.874,115.73079 109.054,115.49079 C 109.454,114.95079 109.774,113.97079 109.774,113.28079 C 109.774,112.74079 109.404,112.36079 108.874,112.36079 M 108.354,112.83079 C 108.754,112.83079 109.004,113.22079 109.004,113.82079 C 109.004,114.24079 108.864,114.76079 108.614,115.25079 C 108.334,115.82079 107.974,116.13079 107.594,116.13079 C 107.184,116.13079 106.924,115.76079 106.924,115.19079 C 106.924,114.03079 107.654,112.83079 108.354,112.83079 M 110.3279,114.39079 C 110.5179,113.91079 110.5679,113.78079 110.6379,113.65079 C 110.7979,113.39079 110.9779,113.27079 111.2279,113.27079 C 111.2779,113.27079 111.4079,113.27079 111.5579,113.28079 C 111.6379,113.29079 111.7279,113.29079 111.8179,113.29079 C 112.0279,113.29079 112.0979,113.28079 112.2779,113.21079 L 111.9379,113.59079 C 111.5079,114.06079 111.3679,114.24079 111.1879,114.57079 C 110.9279,115.04079 110.7679,115.57079 110.7679,115.99079 C 110.7679,116.35079 110.9879,116.60079 111.3079,116.60079 C 111.8279,116.60079 112.4179,116.18079 113.2479,115.24079 C 113.1379,115.57079 113.0979,115.77079 113.0979,116.03079 C 113.0979,116.39079 113.2979,116.60079 113.6379,116.60079 C 114.8979,116.60079 116.8579,114.16079 116.8579,112.58079 C 116.8579,112.31079 116.7779,112.14079 116.6079,112.03079 C 116.3579,112.10079 116.2679,112.13079 115.9079,112.29079 C 116.0079,112.55079 116.0379,112.72079 116.0379,112.99079 C 116.0379,113.65079 115.7879,114.43079 115.3779,115.07079 C 115.0279,115.61079 114.5179,116.03079 114.2079,116.03079 C 114.0079,116.03079 113.8679,115.84079 113.8679,115.57079 C 113.8679,115.14079 114.0179,114.62079 114.6779,112.64079 C 114.4079,112.73079 114.2979,112.76079 113.9379,112.85079 C 113.8779,113.04079 113.8379,113.18079 113.8079,113.27079 C 113.4479,114.47079 113.3479,114.69079 113.0379,115.09079 C 112.6579,115.59079 112.1179,115.98079 111.8079,115.98079 C 111.6379,115.98079 111.5379,115.81079 111.5379,115.54079 C 111.5379,115.11079 111.7079,114.55079 111.9879,114.04079 C 112.2379,113.61079 112.4579,113.33079 113.0179,112.77079 L 113.0179,112.67079 C 113.0179,112.65079 113.0179,112.63079 113.0079,112.59079 L 112.8979,112.59079 C 112.7379,112.71079 112.6579,112.73079 112.4879,112.73079 C 112.1979,112.73079 111.5979,112.72079 111.3479,112.71079 C 111.2379,112.70079 111.1479,112.70079 111.0779,112.70079 C 110.9079,112.70079 110.7979,112.73079 110.7379,112.80079 C 110.5879,112.95079 110.3879,113.41079 110.1579,114.15079 L 110.3279,114.39079"
       id="text9067" />
    <rect
       style="opacity:1;fill:#ffffff;fill-opacity:0.49767444;stroke:none;stroke-width:0.5;stroke-linecap:butt;stroke-linejoin:round;stroke-miterlimit:4;stroke-dasharray:none;stroke-dashoffset:0;stroke-opacity:1"
       id="rect9071"
       width="56.318027"
       height="0.63278681"
       x="20.561747"
       y="112.28197" />
    <rect
       y="114.28197"
       x="20.561747"
       height="0.63278681"
       width="56.318027"
       id="rect9073"
       style="opacity:1;fill:#ffffff;fill-opacity:0.49767444;stroke:none;stroke-width:0.5;stroke-linecap:butt;stroke-linejoin:round;stroke-miterlimit:4;stroke-dasharray:none;stroke-dashoffset:0;stroke-opacity:1" />
    <text
       sodipodi:linespacing="125%"
       id="text9075"
       y="116.78156"
       x="9.2581091"
       style="font-size:15.53861522999999956px;font-style:italic;font-variant:normal;font-weight:normal;font-stretch:normal;text-align:start;line-height:125%;writing-mode:lr-tb;text-anchor:start;fill:#ffffff;fill-opacity:0.49767441;stroke:none;stroke-width:1px;stroke-linecap:butt;stroke-linejoin:miter;stroke-opacity:1;font-family:URW Chancery L;-inkscape-font-specification:URW Chancery L Italic"
       xml:space="preserve"><tspan
         y="116.78156"
         x="9.2581091"
         id="tspan9077"
         sodipodi:role="line"
         style="font-weight:bold;-inkscape-font-specification:URW Chancery L Bold Italic;fill:#ffffff;fill-opacity:0.49767441">.:</tspan></text>
  </g>
</svg>
