<?xml version="1.0" encoding="UTF-8" standalone="no"?>
<!-- Created with Inkscape (http://www.inkscape.org/) -->

<svg
   xmlns:dc="http://purl.org/dc/elements/1.1/"
   xmlns:cc="http://creativecommons.org/ns#"
   xmlns:rdf="http://www.w3.org/1999/02/22-rdf-syntax-ns#"
   xmlns:svg="http://www.w3.org/2000/svg"
   xmlns="http://www.w3.org/2000/svg"
   xmlns:sodipodi="http://sodipodi.sourceforge.net/DTD/sodipodi-0.dtd"
   xmlns:inkscape="http://www.inkscape.org/namespaces/inkscape"
   width="118.60952"
   height="85.051575"
   id="svg3056"
   version="1.1"
   inkscape:version="0.48.3.1 r9886"
   sodipodi:docname="New document 1">
  <defs
     id="defs3058">
    <path
       inkscape:connector-curvature="0"
       style="fill:none;stroke:#404040;stroke-width:2;stroke-linecap:round;stroke-linejoin:round;stroke-miterlimit:4;stroke-opacity:1;stroke-dasharray:none;stroke-dashoffset:0"
       d="m 133.34821,333.43129 6.0625,0"
       id="cloud_flash_hole"
       inkscape:label="#weather:cloud" />

    <path
       inkscape:connector-curvature="0"
       d="m 134.01173,338.19016 -3.76018,8.4404 c -0.37109,0.68435 -0.58576,1.47544 -0.58576,2.31431 0,2.62351 2.0615,4.74528 4.61047,4.74528 2.54898,0 4.62938,-2.12177 4.62937,-4.74528 0,-0.92715 -0.27139,-1.79671 -0.71802,-2.52823 l -4.17588,-8.22648 z"
       id="water_drop"
       sodipodi:nodetypes="ccssssc"
       style="fill:none;stroke:#404040;stroke-width:2;stroke-linecap:round;stroke-linejoin:round;stroke-miterlimit:4;stroke-opacity:1;stroke-dasharray:none;stroke-dashoffset:0"
       inkscape:label="#path3434" />

    <g
       inkscape:label="#g3453"
       id="water_drops"
       transform="translate(110.65667,249.72141)">
      <path
         inkscape:connector-curvature="0"
         style="fill:none;stroke:#404040;stroke-width:1.99999988;stroke-linecap:round;stroke-linejoin:round;stroke-miterlimit:4;stroke-opacity:1;stroke-dasharray:none;stroke-dashoffset:0"
         sodipodi:nodetypes="ccssssc"
         id="path3445"
         d="m 44.294937,88.468752 -3.76018,8.440405 C 40.163673,97.593506 39.949,98.38459 39.949,99.223462 c 0,2.623518 2.061503,4.745288 4.610473,4.745288 2.548969,0 4.629368,-2.12177 4.629367,-4.745288 0,-0.92715 -0.271399,-1.796712 -0.718025,-2.528229 l -4.175878,-8.226481 z" />
      <path
         inkscape:connector-curvature="0"
         style="fill:none;stroke:#404040;stroke-width:1.99999988;stroke-linecap:round;stroke-linejoin:round;stroke-miterlimit:4;stroke-opacity:1;stroke-dasharray:none;stroke-dashoffset:0"
         sodipodi:nodetypes="ccssssc"
         id="path3447"
         d="m 2.3969369,88.469002 -3.76018,8.440405 c -0.371084,0.684349 -0.585757,1.475433 -0.585757,2.314305 0,2.623518 2.06150304,4.745288 4.610473,4.745288 2.548969,0 4.629368,-2.12177 4.629367,-4.745288 0,-0.92715 -0.271399,-1.796712 -0.718025,-2.528229 l -4.175878,-8.226481 z" />
    </g>

    <path
       inkscape:connector-curvature="0"
       style="fill:none;stroke:#404040;stroke-width:2;stroke-linecap:round;stroke-linejoin:round;stroke-miterlimit:4;stroke-opacity:1;stroke-dasharray:none;stroke-dashoffset:0"
       d="m 139.41071,333.43129 24.25,0 c 0.20784,0.0103 0.41463,0.0312 0.625,0.0312 6.9,0 12.50001,-5.6 12.50001,-12.5 1e-5,-6.9 -5.60001,-12.5 -12.50001,-12.5 -0.86249,0 -1.71777,0.0834 -2.53124,0.25 0.0148,-0.24867 0.0312,-0.49765 0.0312,-0.75 0,-6.9 -5.6,-12.5 -12.5,-12.5 -0.86249,0 -1.71777,0.0834 -2.53124,0.25 0.0148,-0.24867 0.0312,-0.49765 0.0312,-0.75 0,-6.9 -5.6,-12.5 -12.5,-12.5 l 0,0 c -6.9,0 -12.5,5.6 -12.5,12.5 0,0.25235 0.0165,0.50133 0.0312,0.75 -0.81348,-0.1666 -1.66875,-0.25 -2.53125,-0.25 -6.9,0 -12.5,5.6 -12.5,12.5 0,0.25235 0.0165,0.50133 0.0312,0.75 -0.81348,-0.1666 -1.66875,-0.25 -2.53125,-0.25 -6.9,0 -12.5,5.6 -12.5,12.5 0,6.9 5.6,12.5 12.5,12.5 0.3578,0 0.71229,-0.033 1.0625,-0.0625 0.0626,0.004 0.12375,0.0312 0.1875,0.0312 l 27.8125,0"
       id="cloud"
       inkscape:label="#path3878" />

    <path
       inkscape:connector-curvature="0"
       style="fill:none;stroke:#404040;stroke-width:2.00000048;stroke-linecap:round;stroke-linejoin:round;stroke-miterlimit:4;stroke-opacity:1;stroke-dasharray:none;stroke-dashoffset:0"
       sodipodi:nodetypes="cscsscssssccssscsscsc"
       id="lower_cloud"
       d="m 123.85306,302.01123 c -7.77218,0 -14.08004,6.32279 -14.08004,14.11337 0,0.28492 0.0186,0.56604 0.0352,0.8468 -0.9163,-0.18811 -1.87968,-0.28227 -2.85121,-0.28227 -7.77218,0 -14.08003,6.32279 -14.08003,14.11336 0,0.28493 0.0186,0.56605 0.0352,0.84681 -0.91631,-0.18811 -1.87969,-0.28227 -2.85121,-0.28227 -7.77218,0 -14.08004,6.32278 -14.08004,14.11335 0,7.79057 6.30786,14.11336 14.08004,14.11336 0.40302,0 0.80233,-0.0372 1.1968,-0.0706 0.0706,0.005 0.13939,0.0353 0.2112,0.0353 l 65.47219,0 c 0.23411,0.0116 0.46703,0.0353 0.704,0.0353 7.77218,0 14.08004,-6.32279 14.08004,-14.11336 0,-7.79057 -6.30786,-14.11335 -14.08004,-14.11335 -0.97152,0 -1.93491,0.0942 -2.85121,0.28227 0.0166,-0.28076 0.0352,-0.56188 0.0352,-0.84681 0,-7.79057 -6.30786,-14.11336 -14.08004,-14.11336 -0.97152,0 -1.9349,0.0942 -2.85121,0.28227 0.0166,-0.28076 0.0352,-0.56188 0.0352,-0.8468 0,-7.79058 -6.30786,-14.11337 -14.08004,-14.11337 z"
       inkscape:label="#path3491" />

    <path
       inkscape:connector-curvature="0"
       id="snow_flake"
       style="fill:none;stroke:#404040;stroke-width:1.5;stroke-linecap:round;stroke-linejoin:round;stroke-miterlimit:4;stroke-opacity:1;stroke-dasharray:none"
       d="m 132.28656,346.21343 -5.6942,2.13318 2,3.4641 4.69573,-3.8666 -1.00042,5.99942 4,0 -1.00042,-6.00138 4.69573,3.86466 2,-3.4641 -5.70033,-2.13367 5.69199,-2.13366 -2,-3.4641 -4.69742,3.86866 0.99873,-5.99735 -4,0 1.00433,5.99979 -4.69183,-3.86623 -2,3.4641 5.69811,2.13318 z"
       sodipodi:nodetypes="ccccccccccccccccccc"
       inkscape:label="#path3235" />

    <g
       id="snow_flakes"
       transform="translate(35.27261,250.55447)"
       inkscape:label="#g3845">
      <path
         inkscape:connector-curvature="0"
         id="path3841"
         style="fill:none;stroke:#404040;stroke-width:1.5;stroke-linecap:round;stroke-linejoin:round;stroke-miterlimit:4;stroke-opacity:1;stroke-dasharray:none"
         d="m 76.064203,95.658961 -5.6942,2.13318 2,3.464099 4.69573,-3.866599 -1.00042,5.999419 4,0 -1.00042,-6.001379 4.69573,3.864659 2,-3.464099 -5.70033,-2.13367 5.69199,-2.13366 -2,-3.4641 -4.69742,3.86866 0.99873,-5.99735 -4,0 1.00433,5.99979 -4.69183,-3.86623 -2,3.4641 5.69811,2.13318 z"
         sodipodi:nodetypes="ccccccccccccccccccc"
         inkscape:label="#path3235" />
      <path
         inkscape:connector-curvature="0"
         inkscape:label="#path3235"
         sodipodi:nodetypes="ccccccccccccccccccc"
         d="m 117.94544,95.658961 -5.6942,2.13318 2,3.464099 4.69573,-3.866599 -1.00042,5.999419 4,0 -1.00042,-6.001379 4.69573,3.864659 2,-3.464099 -5.70033,-2.13367 5.69199,-2.13366 -2,-3.4641 -4.69742,3.86866 0.99873,-5.99735 -4,0 1.00433,5.99979 -4.69183,-3.86623 -2,3.4641 5.69811,2.13318 z"
         style="fill:none;stroke:#404040;stroke-width:1.5;stroke-linecap:round;stroke-linejoin:round;stroke-miterlimit:4;stroke-opacity:1;stroke-dasharray:none"
         id="path3843" />
    </g> 
  </defs>
  <sodipodi:namedview
     id="base"
     pagecolor="#ffffff"
     bordercolor="#666666"
     borderopacity="1.0"
     inkscape:pageopacity="0.0"
     inkscape:pageshadow="2"
     inkscape:zoom="2.72"
     inkscape:cx="47.037126"
     inkscape:cy="42.140797"
     inkscape:document-units="px"
     inkscape:current-layer="layer1"
     showgrid="false"
     fit-margin-top="0"
     fit-margin-left="0"
     fit-margin-right="0"
     fit-margin-bottom="0"
     inkscape:window-width="827"
     inkscape:window-height="588"
     inkscape:window-x="929"
     inkscape:window-y="338"
     inkscape:window-maximized="0" />
  <metadata
     id="metadata3061">
    <rdf:RDF>
      <cc:Work
         rdf:about="">
        <dc:format>image/svg+xml</dc:format>
        <dc:type
           rdf:resource="http://purl.org/dc/dcmitype/StillImage" />
        <dc:title></dc:title>
      </cc:Work>
    </rdf:RDF>
  </metadata>
  <g
     inkscape:label="Layer 1"
     inkscape:groupmode="layer"
     id="layer1"
     transform="translate(-74.96875,-275.55429)">

    <!-- SUN -->
    <g
       id="weather:sun"
       inkscape:label="#g3423"
       transform="translate(34.27659,250.65447)">
      <path
         d="m 128.44348,73.884781 c 0,13.532862 -10.97055,24.503414 -24.50342,24.503414 -13.532858,0 -24.503411,-10.970552 -24.503411,-24.503414 0,-13.532862 10.970553,-24.503414 24.503411,-24.503414 13.53287,0 24.50342,10.970552 24.50342,24.503414 z"
         id="path3388"
         sodipodi:cx="103.94006"
         sodipodi:cy="73.884781"
         sodipodi:rx="24.503414"
         sodipodi:ry="24.503414"
         sodipodi:type="arc"
         style="fill:none;stroke:#404040;stroke-width:2;stroke-linecap:round;stroke-linejoin:round;stroke-miterlimit:4;stroke-opacity:1;stroke-dasharray:none;stroke-dashoffset:0"
         transform="translate(-3.9400635,-6.4847809)" />
      <path
         inkscape:connector-curvature="0"
         d="m 99.9375,25.9 -7.65625,14.46875 c 2.458818,-0.678307 5.045205,-1.0625 7.71875,-1.0625 2.684,0 5.28259,0.37906 7.75,1.0625 L 99.9375,25.9 z"
         id="path3396"
         style="fill:none;stroke:#404040;stroke-width:2;stroke-linecap:round;stroke-linejoin:round;stroke-miterlimit:4;stroke-opacity:1;stroke-dasharray:none" />
      <path
         inkscape:connector-curvature="0"
         d="M 70.610874,38.099263 75.428039,53.744 c 1.259012,-2.218282 2.816198,-4.318799 4.70668,-6.209281 1.897874,-1.897875 4.003391,-3.467319 6.231378,-4.728777 L 70.610874,38.099263 z"
         id="path3409"
         style="fill:none;stroke:#404040;stroke-width:2;stroke-linecap:round;stroke-linejoin:round;stroke-miterlimit:4;stroke-opacity:1;stroke-dasharray:none" />
      <path
         inkscape:connector-curvature="0"
         d="m 58.500001,67.462517 14.468749,7.656249 c -0.678306,-2.458818 -1.062499,-5.045205 -1.062499,-7.71875 -10e-7,-2.684 0.37906,-5.28259 1.062499,-7.75 l -14.468749,7.812501 z"
         id="path3411"
         style="fill:none;stroke:#404040;stroke-width:2;stroke-linecap:round;stroke-linejoin:round;stroke-miterlimit:4;stroke-opacity:1;stroke-dasharray:none" />
      <path
         inkscape:connector-curvature="0"
         d="m 70.69928,96.789148 15.644737,-4.817165 c -2.218282,-1.259012 -4.318799,-2.816198 -6.209281,-4.70668 -1.897875,-1.897874 -3.467319,-4.003391 -4.728777,-6.231378 L 70.69928,96.789148 z"
         id="path3413"
         style="fill:none;stroke:#404040;stroke-width:2;stroke-linecap:round;stroke-linejoin:round;stroke-miterlimit:4;stroke-opacity:1;stroke-dasharray:none" />
      <path
         inkscape:connector-curvature="0"
         d="M 100.08075,108.944 107.737,94.475255 c -2.45881,0.678306 -5.0452,1.062499 -7.71875,1.062499 -2.683996,10e-7 -5.282586,-0.37906 -7.749997,-1.062499 L 100.08075,108.944 z"
         id="path3415"
         style="fill:none;stroke:#404040;stroke-width:2;stroke-linecap:round;stroke-linejoin:round;stroke-miterlimit:4;stroke-opacity:1;stroke-dasharray:none" />
      <path
         inkscape:connector-curvature="0"
         d="m 129.40738,96.744725 -4.81716,-15.644734 c -1.259,2.218276 -2.81619,4.318796 -4.70668,6.209281 -1.89787,1.897873 -4.00339,3.467317 -6.23137,4.728775 l 15.75521,4.706678 z"
         id="path3417"
         style="fill:none;stroke:#404040;stroke-width:2;stroke-linecap:round;stroke-linejoin:round;stroke-miterlimit:4;stroke-opacity:1;stroke-dasharray:none" />
      <path
         inkscape:connector-curvature="0"
         d="m 141.51825,67.381477 -14.46874,-7.656251 c 0.67831,2.458805 1.0625,5.045197 1.0625,7.71875 0,2.683995 -0.37906,5.282587 -1.0625,7.749993 l 14.46874,-7.812492 z"
         id="path3419"
         style="fill:none;stroke:#404040;stroke-width:2;stroke-linecap:round;stroke-linejoin:round;stroke-miterlimit:4;stroke-opacity:1;stroke-dasharray:none" />
      <path
         inkscape:connector-curvature="0"
         d="M 129.31898,38.054843 113.67425,42.872 c 2.21827,1.259 4.31879,2.816192 6.20928,4.70668 1.89787,1.897871 3.46731,4.003389 4.72877,6.231373 l 4.70668,-15.75521 z"
         id="path3421"
         style="fill:none;stroke:#404040;stroke-width:2;stroke-linecap:round;stroke-linejoin:round;stroke-miterlimit:4;stroke-opacity:1;stroke-dasharray:none" />
    </g>

    <!-- MOON -->
    <path
       inkscape:connector-curvature="0"
       style="fill:none;stroke:#3f3f3f;stroke-width:2;stroke-linecap:round;stroke-linejoin:round;stroke-miterlimit:4;stroke-opacity:1;stroke-dasharray:none;stroke-dashoffset:0"
       d="m 123.74533,281.57647 c -5.48997,0 -10.70052,1.22862 -15.37138,3.40813 12.44856,5.80876 21.08076,18.44105 21.08076,33.09187 0,14.65082 -8.6322,27.28312 -21.08076,33.09187 4.67086,2.17952 9.88141,3.40813 15.37138,3.40813 20.12159,0 36.45215,-16.352 36.45215,-36.5 0,-20.148 -16.33056,-36.5 -36.45215,-36.5 z"
       id="weather:moon"
       inkscape:label="#path3213" />

    <!-- CLOUD_NIGHTS-->
    <g
       id="weather:cloud_nights">
        <path
           inkscape:connector-curvature="0"
           style="fill:none;stroke:#3f3f3f;stroke-width:2;stroke-linecap:round;stroke-linejoin:round;stroke-miterlimit:4;stroke-opacity:1;stroke-dasharray:none;stroke-dashoffset:0"
           d="m 165.72451,334.12134 c 3.95707,-5.41928 6.3125,-12.11788 6.3125,-19.34375 -1e-5,-18.08629 -14.64735,-32.75 -32.6875,-32.75 -4.92206,0 -9.59356,1.10601 -13.78125,3.0625 11.16084,5.21436 18.90625,16.53587 18.90625,29.6875 0,0.71808 -0.0483,1.44968 -0.0937,2.15625"
           id="half_moon"
           sodipodi:nodetypes="csccsc"
           inkscape:label="#path3227" />
        <use xlink:href="#lower_cloud" />
    </g>

    <!-- CLOUD_DAYS -->
    <g
       id="weather:cloud_days">
        <path
           inkscape:connector-curvature="0"
           id="half_sun"
           style="fill:none;stroke:#404040;stroke-width:2.00000048;stroke-linecap:round;stroke-linejoin:round;stroke-miterlimit:4;stroke-opacity:1;stroke-dasharray:none;stroke-dashoffset:0"
           d="m 166.89652,334.86455 c 5.75875,-4.25131 9.49477,-11.07909 9.49476,-18.78117 0,-12.88276 -10.45232,-23.33508 -23.33508,-23.33508 -8.88058,0 -16.62299,4.95593 -20.56702,12.26282 M 152.98681,276.5592 145.6946,290.34 c 2.34191,-0.64606 4.80532,-1.01198 7.35174,-1.01198 2.55638,0 5.03142,0.36104 7.38151,1.01198 l -7.44104,-13.7808 z m -27.93222,11.61922 4.58812,14.90087 c 1.19915,-2.11281 2.6823,-4.11345 4.48289,-5.91405 1.80764,-1.80763 3.81305,-3.30245 5.9351,-4.50393 l -15.00611,-4.48289 z m 51.42599,40.94165 c -1.19914,2.11281 -2.69379,4.12247 -4.49439,5.92307 -0.88353,0.88354 -1.82927,1.67455 -2.79783,2.41089 0.75774,1.09209 1.3877,2.28516 1.81562,3.5717 l 10.06027,3.00618 -4.58367,-14.91184 z m 16.10992,-13.05173 -13.78079,-7.29222 c 0.64606,2.3419 1.01198,4.80531 1.01198,7.35174 0,2.55638 -0.36103,5.03142 -1.01198,7.3815 l 13.78079,-7.44102 z m -11.61922,-27.93223 -14.90087,4.58812 c 2.1128,1.19913 4.11345,2.68228 5.91405,4.48288 1.80763,1.80764 3.30245,3.81304 4.50393,5.93509 l 4.48289,-15.00609 z"
           sodipodi:nodetypes="csccccsccccscccsccccccsccccscc"
           inkscape:label="#path3469" />
        <use xlink:href="#lower_cloud" />
    </g>

    <!-- HAIL -->
    <g
       id="weather:hail">
        <use xlink:href="#cloud" />
        <use xlink:href="#cloud_flash_hole" />
        <g
           id="hail"
           transform="translate(34.23705,250.55447)"
           inkscape:label="#g3857">
          <path
             transform="matrix(0.6470737,0,0,0.6470737,33.166137,-115.8318)"
             d="m 142.29839,331.60043 c 0,3.62743 -2.94061,6.56803 -6.56803,6.56803 -3.62742,0 -6.56803,-2.9406 -6.56803,-6.56803 0,-3.62742 2.94061,-6.56803 6.56803,-6.56803 3.62742,0 6.56803,2.94061 6.56803,6.56803 z"
             sodipodi:ry="6.5680304"
             sodipodi:rx="6.5680304"
             sodipodi:cy="331.60043"
             sodipodi:cx="135.73036"
             id="path3251"
             style="fill:none;stroke:#404040;stroke-width:2.31812835;stroke-linecap:round;stroke-linejoin:round;stroke-miterlimit:4;stroke-opacity:1;stroke-dasharray:none;stroke-dashoffset:0"
             sodipodi:type="arc" />
          <path
             sodipodi:type="arc"
             style="fill:none;stroke:#404040;stroke-width:2.31812835;stroke-linecap:round;stroke-linejoin:round;stroke-miterlimit:4;stroke-opacity:1;stroke-dasharray:none;stroke-dashoffset:0"
             id="path3849"
             sodipodi:cx="135.73036"
             sodipodi:cy="331.60043"
             sodipodi:rx="6.5680304"
             sodipodi:ry="6.5680304"
             d="m 142.29839,331.60043 c 0,3.62743 -2.94061,6.56803 -6.56803,6.56803 -3.62742,0 -6.56803,-2.9406 -6.56803,-6.56803 0,-3.62742 2.94061,-6.56803 6.56803,-6.56803 3.62742,0 6.56803,2.94061 6.56803,6.56803 z"
             transform="matrix(0.6470737,0,0,0.6470737,22.689065,-122.55178)" />
          <path
             transform="matrix(0.6470737,0,0,0.6470737,12.211991,-115.8318)"
             d="m 142.29839,331.60043 c 0,3.62743 -2.94061,6.56803 -6.56803,6.56803 -3.62742,0 -6.56803,-2.9406 -6.56803,-6.56803 0,-3.62742 2.94061,-6.56803 6.56803,-6.56803 3.62742,0 6.56803,2.94061 6.56803,6.56803 z"
             sodipodi:ry="6.5680304"
             sodipodi:rx="6.5680304"
             sodipodi:cy="331.60043"
             sodipodi:cx="135.73036"
             id="path3851"
             style="fill:none;stroke:#404040;stroke-width:2.31812835;stroke-linecap:round;stroke-linejoin:round;stroke-miterlimit:4;stroke-opacity:1;stroke-dasharray:none;stroke-dashoffset:0"
             sodipodi:type="arc" />
          <path
             sodipodi:type="arc"
             style="fill:none;stroke:#404040;stroke-width:2.31812835;stroke-linecap:round;stroke-linejoin:round;stroke-miterlimit:4;stroke-opacity:1;stroke-dasharray:none;stroke-dashoffset:0"
             id="path3853"
             sodipodi:cx="135.73036"
             sodipodi:cy="331.60043"
             sodipodi:rx="6.5680304"
             sodipodi:ry="6.5680304"
             d="m 142.29839,331.60043 c 0,3.62743 -2.94061,6.56803 -6.56803,6.56803 -3.62742,0 -6.56803,-2.9406 -6.56803,-6.56803 0,-3.62742 2.94061,-6.56803 6.56803,-6.56803 3.62742,0 6.56803,2.94061 6.56803,6.56803 z"
             transform="matrix(0.6470737,0,0,0.6470737,1.7349183,-122.55178)" />
          <path
             transform="matrix(0.6470737,0,0,0.6470737,-8.7421508,-115.8318)"
             d="m 142.29839,331.60043 c 0,3.62743 -2.94061,6.56803 -6.56803,6.56803 -3.62742,0 -6.56803,-2.9406 -6.56803,-6.56803 0,-3.62742 2.94061,-6.56803 6.56803,-6.56803 3.62742,0 6.56803,2.94061 6.56803,6.56803 z"
             sodipodi:ry="6.5680304"
             sodipodi:rx="6.5680304"
             sodipodi:cy="331.60043"
             sodipodi:cx="135.73036"
             id="path3855"
             style="fill:none;stroke:#404040;stroke-width:2.31812835;stroke-linecap:round;stroke-linejoin:round;stroke-miterlimit:4;stroke-opacity:1;stroke-dasharray:none;stroke-dashoffset:0"
             sodipodi:type="arc" />
        </g>
    </g>

    <!-- CLOUDS_MIST -->
    <g
       id="weather:clouds_mist">
        <use xlink:href="#cloud" />
        <use xlink:href="#cloud_flash_hole" />
    </g>

    <!-- HALF_SHOWERS -->
    <g
       id="weather:half_showers">
        <use xlink:href="#cloud" />
        <use xlink:href="#cloud_flash_hole" />
        <use xlink:href="#water_drop" />
    </g>

    <!-- SHOWERS -->
    <g
       id="weather:showers">
        <use xlink:href="#cloud" />
        <use xlink:href="#cloud_flash_hole" />
        <use xlink:href="#water_drop" />
        <use xlink:href="#water_drops" />
    </g>

    <!-- SHOWERS_SCATTERED -->
    <g
       id="weather:showers_scattered">
        <use xlink:href="#cloud" />
        <use xlink:href="#cloud_flash_hole" />
        <use xlink:href="#water_drops" />
    </g>

    <!-- SNOW -->
    <g
       id="weather:snow">
        <use xlink:href="#cloud" />
        <use xlink:href="#cloud_flash_hole" />
        <use xlink:href="#snow_flake" />
        <use xlink:href="#snow_flakes" />
    </g>

    <!-- SNOW_RAIN -->
    <g
       id="weather:snow_rain">
        <use xlink:href="#cloud" />
        <use xlink:href="#cloud_flash_hole" />
        <use xlink:href="#snow_flake" />
        <use xlink:href="#water_drops" />
    </g>

    <!-- SNOW_SCATTERED -->
    <g
       id="weather:snow_scattered">
        <use xlink:href="#cloud" />
        <use xlink:href="#cloud_flash_hole" />
        <use xlink:href="#snow_flakes" />
    </g>

    <!-- SNOW_STORM -->
    <g
       id="weather:snow_storm">
        <use xlink:href="#cloud" />
        <path
           inkscape:connector-curvature="0"
           id="flash"
           style="fill:none;stroke:#3f3f3f;stroke-width:2;stroke-linecap:round;stroke-linejoin:round;stroke-miterlimit:4;stroke-opacity:1;stroke-dasharray:none"
           d="m 129.27659,328.6904 -5,-25 20,0 -5,20 5,0 -15,30 5,-25 -5,0 z"
           sodipodi:nodetypes="cccccccc"
           inkscape:label="#path2433" />
        <use xlink:href="#water_drops" />
    </g>
  </g>
</svg>
