<?xml version="1.0" encoding="UTF-8" standalone="no"?>
<!-- Created with Inkscape (http://www.inkscape.org/) -->

<svg
   xmlns:dc="http://purl.org/dc/elements/1.1/"
   xmlns:cc="http://creativecommons.org/ns#"
   xmlns:rdf="http://www.w3.org/1999/02/22-rdf-syntax-ns#"
   xmlns:svg="http://www.w3.org/2000/svg"
   xmlns="http://www.w3.org/2000/svg"
   xmlns:sodipodi="http://sodipodi.sourceforge.net/DTD/sodipodi-0.dtd"
   xmlns:inkscape="http://www.inkscape.org/namespaces/inkscape"
   width="80.032936"
   height="80.032486"
   id="svg3117"
   version="1.1"
   inkscape:version="0.48.3.1 r9886"
   sodipodi:docname="New document 2">
  <defs>
    <g
      id="static_arrows">
      <path
        style="fill:#404040;fill-opacity:1;fill-rule:evenodd;stroke:none"
        id="path4175"
        d="m 374.70104,492.34653 c -0.7015,0.005 -1.39631,0.0203 -2.09374,0.0625 l 2.37498,3.96875 2.375,-3.9375 c -0.88405,-0.0522 -1.77613,-0.10048 -2.65624,-0.0937 z"
        inkscape:connector-curvature="0" />
      <path
        style="fill:#404040;fill-opacity:1;fill-rule:evenodd;stroke:none"
        id="path4181"
        d="m 359.41065,495.50224 c -0.64605,0.2734 -1.28225,0.55311 -1.91044,0.85898 l 3.71297,2.75778 0.68739,-4.54665 c -0.83674,0.29004 -1.67938,0.58687 -2.48992,0.92989 z"
        inkscape:connector-curvature="0" />
      <path
        style="fill:#404040;fill-opacity:1;fill-rule:evenodd;stroke:none"
        id="path4183"
        d="m 346.49208,504.27185 c -0.49225,0.49982 -0.97298,1.0017 -1.43631,1.52469 l 4.48569,1.12696 -1.10485,-4.46362 c -0.66206,0.58818 -1.32696,1.18487 -1.94453,1.81197 z"
        inkscape:connector-curvature="0" />
      <path
        style="fill:#404040;fill-opacity:1;fill-rule:evenodd;stroke:none"
        id="path4185"
        d="m 337.91506,517.32049 c -0.2635,0.65015 -0.51558,1.2978 -0.74349,1.9583 l 4.57549,-0.67545 -2.72889,-3.70103 c -0.38658,0.79676 -0.77253,1.60249 -1.10311,2.41818 z"
        inkscape:connector-curvature="0" />
      <path
        style="fill:#404040;fill-opacity:1;fill-rule:evenodd;stroke:none"
        id="path4187"
        d="m 334.98415,532.66147 c 0.005,0.7015 0.0203,1.39631 0.0625,2.09376 l 3.96872,-2.37501 -3.93748,-2.375 c -0.0523,0.88405 -0.10048,1.77613 -0.0937,2.65625 z"
        inkscape:connector-curvature="0" />
      <path
        style="fill:#404040;fill-opacity:1;fill-rule:evenodd;stroke:none"
        id="path4189"
        d="m 390.03563,495.27737 c -0.65015,-0.2635 -1.29779,-0.51558 -1.95828,-0.7435 l 0.67544,4.57552 3.70101,-2.7289 c -0.79676,-0.38658 -1.60248,-0.77253 -2.41817,-1.10312 z"
        inkscape:connector-curvature="0" />
      <path
        style="fill:#404040;fill-opacity:1;fill-rule:evenodd;stroke:none"
        id="path4191"
        d="m 403.08303,503.85455 c -0.49982,-0.49225 -1.00169,-0.97298 -1.52468,-1.43631 l -1.12696,4.48571 4.4636,-1.10486 c -0.58817,-0.66206 -1.18487,-1.32697 -1.81196,-1.94454 z"
        inkscape:connector-curvature="0" />
      <path
        style="fill:#404040;fill-opacity:1;fill-rule:evenodd;stroke:none"
        id="path4193"
        d="m 411.85493,516.77187 c -0.2734,-0.64605 -0.5531,-1.28225 -0.85897,-1.91045 l -2.75777,3.71299 4.54664,0.68739 c -0.29005,-0.83675 -0.58688,-1.67939 -0.9299,-2.48993 z"
        inkscape:connector-curvature="0" />
      <path
        style="fill:#404040;fill-opacity:1;fill-rule:evenodd;stroke:none"
        id="path4195"
        d="m 415.01589,532.0628 c -0.005,-0.7015 -0.0203,-1.39631 -0.0625,-2.09375 l -3.96874,2.375 3.9375,2.375 c 0.0522,-0.88405 0.10046,-1.77614 0.0937,-2.65625 z"
        inkscape:connector-curvature="0" />
      <path
        style="fill:#404040;fill-opacity:1;fill-rule:evenodd;stroke:none"
        id="path4197"
        d="m 412.08506,547.39747 c 0.26351,-0.65015 0.51558,-1.2978 0.74351,-1.95829 l -4.57551,0.67544 2.72891,3.70103 c 0.38656,-0.79676 0.7725,-1.60249 1.10309,-2.41818 z"
        inkscape:connector-curvature="0" />
      <path
        style="fill:#404040;fill-opacity:1;fill-rule:evenodd;stroke:none"
        id="path4199"
        d="m 403.50792,560.44493 c 0.49225,-0.49982 0.97298,-1.00171 1.43631,-1.52469 l -4.4857,-1.12696 1.10487,4.46362 c 0.66205,-0.58818 1.32694,-1.18488 1.94452,-1.81197 z"
        inkscape:connector-curvature="0" />
      <path
        style="fill:#404040;fill-opacity:1;fill-rule:evenodd;stroke:none"
        id="path4201"
        d="m 390.59065,569.21687 c 0.64605,-0.2734 1.28224,-0.55312 1.91045,-0.85897 l -3.71298,-2.75779 -0.68738,4.54666 c 0.83674,-0.29005 1.67936,-0.58688 2.48991,-0.9299 z"
        inkscape:connector-curvature="0" />
      <path
        style="fill:#404040;fill-opacity:1;fill-rule:evenodd;stroke:none"
        id="path4203"
        d="m 375.29978,572.37784 c 0.70149,-0.005 1.39631,-0.0203 2.09374,-0.0625 l -2.37499,-3.96877 -2.37499,3.93752 c 0.88404,0.0522 1.77612,0.10046 2.65624,0.0937 z"
        inkscape:connector-curvature="0" />
      <path
        style="fill:#404040;fill-opacity:1;fill-rule:evenodd;stroke:none"
        id="path4205"
        d="m 359.96517,569.44699 c 0.65015,0.2635 1.29781,0.51558 1.95828,0.74351 l -0.67543,-4.57554 -3.70101,2.72893 c 0.79676,0.38657 1.60247,0.7725 2.41816,1.1031 z"
        inkscape:connector-curvature="0" />
      <path
        style="fill:#404040;fill-opacity:1;fill-rule:evenodd;stroke:none"
        id="path4207"
        d="m 346.91777,560.86981 c 0.49983,0.49224 1.00171,0.97298 1.52469,1.43632 l 1.12696,-4.48573 -4.46361,1.10488 c 0.58818,0.66205 1.18488,1.32694 1.81196,1.94453 z"
        inkscape:connector-curvature="0" />
      <path
        style="fill:#404040;fill-opacity:1;fill-rule:evenodd;stroke:none"
        id="path4209"
        d="m 338.14587,547.95248 c 0.2734,0.64604 0.55312,1.28225 0.85897,1.91046 l 2.75778,-3.713 -4.54665,-0.68738 c 0.29005,0.83674 0.58689,1.67936 0.9299,2.48992 z"
        inkscape:connector-curvature="0" />
    </g>
  </defs>
  <sodipodi:namedview
     id="base"
     pagecolor="#ffffff"
     bordercolor="#666666"
     borderopacity="1.0"
     inkscape:pageopacity="0.0"
     inkscape:pageshadow="2"
     inkscape:zoom="1.24"
     inkscape:cx="40.01645"
     inkscape:cy="40.016243"
     inkscape:document-units="px"
     inkscape:current-layer="layer1"
     showgrid="false"
     fit-margin-top="0"
     fit-margin-left="0"
     fit-margin-right="0"
     fit-margin-bottom="0"
     inkscape:window-width="845"
     inkscape:window-height="662"
     inkscape:window-x="709"
     inkscape:window-y="329"
     inkscape:window-maximized="0" />
  <metadata
     id="metadata3122">
    <rdf:RDF>
      <cc:Work
         rdf:about="">
        <dc:format>image/svg+xml</dc:format>
        <dc:type
           rdf:resource="http://purl.org/dc/dcmitype/StillImage" />
        <dc:title></dc:title>
      </cc:Work>
    </rdf:RDF>
  </metadata>
  <g
     inkscape:label="Layer 1"
     inkscape:groupmode="layer"
     id="layer1"
     transform="translate(-334.98355,-492.34594)">

    <g
      id="wind:N">
      <use xlink:href="#static_arrows" />
      <g
        transform="translate(274.98069,282.50461)">
        <path
          inkscape:connector-curvature="0"
          style="fill:#404040;fill-opacity:1;fill-rule:evenodd;stroke:none"
          sodipodi:nodetypes="cccc"
          inkscape:label="#path4211"
          id="wind:N:arrow"
          d="m 100.03862,286.067 4,-7 -8,0 4,7 z" />
      </g>
    </g>

    <g
      id="wind:NNW">
      <use xlink:href="#static_arrows" />
      <g
        transform="translate(274.98069,282.50461)">
        <path
          inkscape:connector-curvature="0"
          style="fill:#404040;fill-opacity:1;fill-rule:evenodd;stroke:none"
          sodipodi:nodetypes="cccc"
          inkscape:label="#path4213"
          id="wind:NNW:arrow"
          d="m 113.80748,283.32052 1.01673,-7.99789 -7.39103,3.06147 6.3743,4.93642 z" />
      </g>
    </g>

    <g
      id="wind:NW">
      <use xlink:href="#static_arrows" />
      <g
        transform="translate(274.98069,282.50461)">
        <path
          inkscape:connector-curvature="0"
          style="fill:#404040;fill-opacity:1;fill-rule:evenodd;stroke:none"
          sodipodi:nodetypes="cccc"
          inkscape:label="#path4215"
          id="wind:NW:arrow"
          d="m 125.47721,275.514 -2.12132,-7.77818 -5.65685,5.65686 7.77817,2.12132 z" />
      </g>
    </g>

    <g
      id="wind:WNW">
      <use xlink:href="#static_arrows" />
      <g
        transform="translate(274.98069,282.50461)">
        <path
          inkscape:connector-curvature="0"
          style="fill:#404040;fill-opacity:1;fill-rule:evenodd;stroke:none"
          sodipodi:nodetypes="cccc"
          inkscape:label="#path4217"
          id="wind:WNW:arrow"
          d="m 133.27122,263.8359 -4.93642,-6.37431 -3.06147,7.39104 7.99789,-1.01673 z" />
      </g>
    </g>

    <g
      id="wind:W">
      <use xlink:href="#static_arrows" />
      <g
        transform="translate(274.98069,282.50461)">
        <path
          inkscape:connector-curvature="0"
          style="fill:#404040;fill-opacity:1;fill-rule:evenodd;stroke:none"
          sodipodi:nodetypes="cccc"
          inkscape:label="#path4219"
          id="wind:W"
          d="m 136.00293,250.06411 -7,-4.00001 0,8 7,-3.99999 z" />
      </g>
    </g>

    <g
      id="wind:WSW">
      <use xlink:href="#static_arrows" /> 
      <g
        transform="translate(274.98069,282.50461)">
        <path
          inkscape:connector-curvature="0"
          style="fill:#404040;fill-opacity:1;fill-rule:evenodd;stroke:none"
          sodipodi:nodetypes="cccc"
          inkscape:label="#path4221"
          id="wind:WSW:arrow"
          d="m 133.25647,236.29525 -7.9979,-1.01674 3.06147,7.39104 4.93643,-6.3743 z" />
      </g>
    </g>

    <g
      id="wind:SW">
      <use xlink:href="#static_arrows" />
      <g
        transform="translate(274.98069,282.50461)">
        <path
          inkscape:connector-curvature="0"
          style="fill:#404040;fill-opacity:1;fill-rule:evenodd;stroke:none"
          sodipodi:nodetypes="cccc"
          inkscape:label="#path4223"
          id="wind:SW:arrow"
          d="m 125.44996,224.6255 -7.77818,2.12132 5.65686,5.65686 2.12132,-7.77818 z" />
      </g>
    </g>

    <g
      id="wind:SSW">
      <use xlink:href="#static_arrows" />
      <g
        transform="translate(274.98069,282.50461)">
        <path
          inkscape:connector-curvature="0"
          style="fill:#404040;fill-opacity:1;fill-rule:evenodd;stroke:none"
          sodipodi:nodetypes="cccc"
          inkscape:label="#path4225"
          id="wind:SSW:arrow"
          d="m 113.77186,216.83148 -6.37431,4.93643 7.39105,3.06147 -1.01674,-7.9979 z" />
      </g>
    </g>

    <g
      id="wind:S">
      <use xlink:href="#static_arrows" />
      <g
        transform="translate(274.98069,282.50461)">
        <path
          inkscape:connector-curvature="0"
          style="fill:#404040;fill-opacity:1;fill-rule:evenodd;stroke:none"
          sodipodi:nodetypes="cccc"
          inkscape:label="#path4227"
          id="wind:S:arrow"
          d="m 100.00006,214.09976 -4,7.00001 8,0 -4,-7.00001 z" />
      </g>
    </g>

    <g
      id="wind:SSE">
      <use xlink:href="#static_arrows" />
      <g
        transform="translate(274.98069,282.50461)">
        <path
          inkscape:connector-curvature="0"
          style="fill:#404040;fill-opacity:1;fill-rule:evenodd;stroke:none"
          sodipodi:nodetypes="cccc"
          inkscape:label="#path4229"
          id="wind:SSE:arrow"
          d="m 86.23119,216.84621 -1.01673,7.9979 7.39104,-3.06146 -6.37431,-4.93644 z" />
      </g>
    </g>

    <g
      id="wind:SE">
      <use xlink:href="#static_arrows" />
      <g
        transform="translate(274.98069,282.50461)">
        <path
          inkscape:connector-curvature="0"
          style="fill:#404040;fill-opacity:1;fill-rule:evenodd;stroke:none"
          sodipodi:nodetypes="cccc"
          inkscape:label="#path4231"
          id="wind:SE:arrow"
          d="m 74.56143,224.65273 2.12133,7.77818 5.65686,-5.65685 -7.77819,-2.12133 z" />
      </g>
    </g>

    <g
      id="wind:ESE">
      <use xlink:href="#static_arrows" />
      <g
        transform="translate(274.98069,282.50461)">
        <path
          inkscape:connector-curvature="0"
          style="fill:#404040;fill-opacity:1;fill-rule:evenodd;stroke:none"
          sodipodi:nodetypes="cccc"
          inkscape:label="#path4233"
          id="wind:ESE:arrow"
          d="m 66.76741,236.33083 4.93643,6.37431 3.06148,-7.39104 -7.99791,1.01673 z" />
      </g>
    </g>

    <g
      id="wind:E">
      <use xlink:href="#static_arrows" />
      <g
        transform="translate(274.98069,282.50461)">
        <path
          inkscape:connector-curvature="0"
          style="fill:#404040;fill-opacity:1;fill-rule:evenodd;stroke:none"
          sodipodi:nodetypes="cccc"
          inkscape:label="#path4235"
          id="wind:E:arrow"
          d="m 64.03569,250.10263 7.00001,4 10e-6,-8.00001 -7.00002,4.00001 z" />
      </g>
    </g>

    <g
      id="wind:ENE">
      <use xlink:href="#static_arrows" />
      <g
        transform="translate(274.98069,282.50461)">
        <path
          inkscape:connector-curvature="0"
          style="fill:#404040;fill-opacity:1;fill-rule:evenodd;stroke:none"
          sodipodi:nodetypes="cccc"
          inkscape:label="#path4237"
          id="wind:ENE:arrow"
          d="m 66.78214,263.8715 7.9979,1.01673 -3.06146,-7.39105 -4.93644,6.37432 z" />
      </g>
    </g>

    <g
      id="wind:NE">
      <use xlink:href="#static_arrows" />
      <g
        transform="translate(274.98069,282.50461)">
        <path
          inkscape:connector-curvature="0"
          style="fill:#404040;fill-opacity:1;fill-rule:evenodd;stroke:none"
          sodipodi:nodetypes="cccc"
          inkscape:label="#path4239"
          id="wind:NE:arrow"
          d="m 74.58865,275.54125 7.77819,-2.12132 -5.65686,-5.65687 -2.12133,7.77819 z" />
      </g>
    </g>

    <g
      id="wind:NNE">
      <use xlink:href="#static_arrows" />
      <g
        transform="translate(274.98069,282.50461)">
        <path
          inkscape:connector-curvature="0"
          style="fill:#404040;fill-opacity:1;fill-rule:evenodd;stroke:none"
          sodipodi:nodetypes="cccc"
          inkscape:label="#path4241"
          id="wind:NNE:arrow"
          d="m 86.26675,283.33527 6.37431,-4.93643 -7.39104,-3.06147 1.01673,7.9979 z" />
       </g>
    </g>
    
    <g
      id="wind:default">
      <use xlink:href="#static_arrows" />
    </g>
  </g>
</svg>
