<?xml version="1.0" encoding="UTF-8" standalone="no"?>
<!-- Created with Inkscape (http://www.inkscape.org/) -->
<svg
   xmlns:dc="http://purl.org/dc/elements/1.1/"
   xmlns:cc="http://creativecommons.org/ns#"
   xmlns:rdf="http://www.w3.org/1999/02/22-rdf-syntax-ns#"
   xmlns:svg="http://www.w3.org/2000/svg"
   xmlns="http://www.w3.org/2000/svg"
   xmlns:xlink="http://www.w3.org/1999/xlink"
   xmlns:sodipodi="http://sodipodi.sourceforge.net/DTD/sodipodi-0.dtd"
   xmlns:inkscape="http://www.inkscape.org/namespaces/inkscape"
   height="121"
   width="142"
   id="svg2216"
   sodipodi:version="0.32"
   inkscape:version="0.46"
   sodipodi:docbase="/home/irek/melly/thick/widgets"
   sodipodi:docname="systemtray.svg"
   version="1.0"
   inkscape:output_extension="org.inkscape.output.svg.inkscape">
  <defs
     id="defs2218">
    <inkscape:perspective
       sodipodi:type="inkscape:persp3d"
       inkscape:vp_x="0 : 60.5 : 1"
       inkscape:vp_y="0 : 1000 : 0"
       inkscape:vp_z="142 : 60.5 : 1"
       inkscape:persp3d-origin="71 : 40.333333 : 1"
       id="perspective60" />
    <linearGradient
       id="linearGradient2787-247">
      <stop
         style="stop-color:#000000;stop-opacity:1;"
         id="stop5087"
         offset="0" />
      <stop
         style="stop-color:#424242;stop-opacity:1;"
         id="stop5089"
         offset="1" />
    </linearGradient>
    <linearGradient
       inkscape:collect="always"
       xlink:href="#linearGradient2787-247"
       id="linearGradient4999"
       gradientUnits="userSpaceOnUse"
       gradientTransform="matrix(0.270363,0,0,0.835921,174.7687,73.5067)"
       x1="445.49554"
       y1="662.46448"
       x2="445.49554"
       y2="627.82062" />
    <linearGradient
       id="linearGradient2218">
      <stop
         style="stop-color:#000000;stop-opacity:1;"
         offset="0"
         id="stop2220" />
      <stop
         style="stop-color:#424242;stop-opacity:1;"
         offset="1"
         id="stop2222" />
    </linearGradient>
    <linearGradient
       id="linearGradient2561">
      <stop
         style="stop-color:#ffffff;stop-opacity:1;"
         offset="0"
         id="stop2563" />
      <stop
         style="stop-color:#ffffff;stop-opacity:0;"
         offset="1"
         id="stop2565" />
    </linearGradient>
    <linearGradient
       inkscape:collect="always"
       xlink:href="#linearGradient2561"
       id="linearGradient14611"
       gradientUnits="userSpaceOnUse"
       gradientTransform="matrix(0.301421,0,0,0.74211,-1.949375,1063.82)"
       x1="1445.2288"
       y1="-691.53094"
       x2="1445.2288"
       y2="-610.81329" />
  </defs>
  <sodipodi:namedview
     id="base"
     pagecolor="#e9e9e9"
     bordercolor="#666666"
     borderopacity="1.0"
     inkscape:pageopacity="1"
     inkscape:pageshadow="2"
     inkscape:cx="70.00003"
     inkscape:cy="65"
     inkscape:zoom="14.199986"
     inkscape:document-units="px"
     inkscape:current-layer="layer1"
     inkscape:window-width="962"
     inkscape:window-height="768"
     inkscape:window-x="0"
     inkscape:window-y="0"
     width="142px"
     height="121px"
     gridtolerance="10000"
     inkscape:grid-points="true"
     showgrid="true" />
  <metadata
     id="metadata2221">
    <rdf:RDF>
      <cc:Work
         rdf:about="">
        <dc:format>image/svg+xml</dc:format>
        <dc:type
           rdf:resource="http://purl.org/dc/dcmitype/StillImage" />
      </cc:Work>
    </rdf:RDF>
  </metadata>
  <g
     inkscape:groupmode="layer"
     inkscape:label="Warstwa 1"
     id="layer1"
     transform="translate(-225.2143,-557.0049)">
    <g
       id="topleft"
       transform="translate(285.7143,635.1427)"
       inkscape:label="#g4915">
      <path
         id="path4917"
         d="M -5.78123,-42.125 C -8.3462,-42.125 -10.49998,-39.97122 -10.49998,-37.40625 L -10.49998,-37.125 L -9.49998,-37.125 L -9.49998,-37.40625 C -9.49998,-39.43452 -7.8095,-41.125 -5.78123,-41.125 L -5.49998,-41.125 L -5.49998,-42.125 L -5.78123,-42.125 z "
         style="color:black;fill:#ffffff;fill-opacity:0.11764706;fill-rule:nonzero;stroke:none;stroke-width:1;stroke-linecap:butt;stroke-linejoin:miter;marker:none;marker-start:none;marker-mid:none;marker-end:none;stroke-miterlimit:4;stroke-dasharray:none;stroke-dashoffset:0;stroke-opacity:1;visibility:visible;display:inline;overflow:visible" />
      <path
         id="path4919"
         d="M -5.78123,-41.13782 C -7.8095,-41.13782 -9.49998,-39.44734 -9.49998,-37.41907 L -9.49998,-37.13782 L -8.49998,-37.13782 L -8.49998,-37.41907 C -8.49998,-38.91062 -7.27279,-40.13781 -5.78123,-40.13781 L -5.49998,-40.13781 L -5.49998,-41.13782 L -5.78123,-41.13782 z "
         style="color:black;fill:#000000;fill-opacity:0.23529412;fill-rule:nonzero;stroke:none;stroke-width:4.00000047999999975;stroke-linecap:butt;stroke-linejoin:miter;marker:none;stroke-miterlimit:4;stroke-dasharray:none;stroke-dashoffset:0;stroke-opacity:1;visibility:visible;display:inline;overflow:visible" />
      <path
         id="path4921"
         d="M -5.78123,-40.13782 C -7.27279,-40.13782 -8.49998,-38.91062 -8.49998,-37.41907 L -8.49998,-37.13782 L -7.49998,-37.13782 L -7.49998,-37.45032 C -7.49998,-38.39049 -6.73609,-39.13781 -5.78123,-39.13781 L -5.49998,-39.13781 L -5.49998,-40.13782 L -5.78123,-40.13782 z "
         style="color:black;fill:#ffffff;fill-opacity:0;fill-rule:nonzero;stroke:none;stroke-width:1;stroke-linecap:butt;stroke-linejoin:miter;marker:none;marker-start:none;marker-mid:none;marker-end:none;stroke-miterlimit:4;stroke-dasharray:none;stroke-dashoffset:0;stroke-opacity:1;visibility:visible;display:inline;overflow:visible" />
      <path
         style="opacity:0;color:black;fill:#424242;fill-opacity:1;fill-rule:nonzero;stroke:none;stroke-width:1.39999998;stroke-linecap:butt;stroke-linejoin:miter;marker:none;marker-start:none;marker-mid:none;marker-end:none;stroke-miterlimit:4;stroke-dashoffset:0;stroke-opacity:1;visibility:visible;display:inline;overflow:visible"
         d="M -5.78123,-39.13782 C -6.73609,-39.13782 -7.49998,-38.38568 -7.49998,-37.44551 L -7.49998,-37.13782 L -5.49998,-37.13782 L -5.49998,-39.13782 L -5.78123,-39.13782 z "
         id="path4923" />
    </g>
    <g
       id="top"
       transform="translate(285.7143,635.1427)"
       inkscape:label="#g4925">
      <g
         id="g4927">
        <path
           style="color:black;fill:#ffffff;fill-opacity:0.11764706;fill-rule:nonzero;stroke:none;stroke-width:1;stroke-linecap:butt;stroke-linejoin:miter;marker:none;marker-start:none;marker-mid:none;marker-end:none;stroke-miterlimit:4;stroke-dasharray:none;stroke-dashoffset:0;stroke-opacity:1;visibility:visible;display:inline;overflow:visible"
           d="M -5.49998,-42.13782 L -5.49998,-41.13782 L 24.50002,-41.13782 L 24.50002,-42.13782 L -5.49998,-42.13782 z "
           id="path4929" />
        <path
           style="color:black;fill:#000000;fill-opacity:0.23529412;fill-rule:nonzero;stroke:none;stroke-width:4.00000047999999975;stroke-linecap:butt;stroke-linejoin:miter;marker:none;marker-start:none;marker-mid:none;marker-end:none;stroke-miterlimit:4;stroke-dasharray:none;stroke-dashoffset:0;stroke-opacity:1;visibility:visible;display:inline;overflow:visible"
           d="M -5.49998,-41.13782 L -5.49998,-40.13782 L 24.50002,-40.13782 L 24.50002,-41.13782 L -5.49998,-41.13782 z "
           id="path4931" />
        <path
           style="color:black;fill:#ffffff;fill-opacity:0;fill-rule:nonzero;stroke:none;stroke-width:1;stroke-linecap:butt;stroke-linejoin:miter;marker:none;marker-start:none;marker-mid:none;marker-end:none;stroke-miterlimit:4;stroke-dasharray:none;stroke-dashoffset:0;stroke-opacity:1;visibility:visible;display:inline;overflow:visible"
           d="M -5.49998,-40.13782 L -5.49998,-39.13782 L 24.50002,-39.13782 L 24.50002,-40.13782 L -5.49998,-40.13782 z "
           id="path4933" />
      </g>
      <path
         id="path4935"
         d="M -5.49998,-39.13782 L -5.49998,-37.13782 L 24.50002,-37.13782 L 24.50002,-39.13782 L -5.49998,-39.13782 z "
         style="opacity:0;color:black;fill:#424242;fill-opacity:1;fill-rule:nonzero;stroke:none;stroke-width:1.39999998;stroke-linecap:butt;stroke-linejoin:miter;marker:none;marker-start:none;marker-mid:none;marker-end:none;stroke-miterlimit:4;stroke-dashoffset:0;stroke-opacity:1;visibility:visible;display:inline;overflow:visible" />
    </g>
    <path
       inkscape:label="#path7491"
       style="opacity:0;color:black;fill:url(#linearGradient4999);fill-opacity:1;fill-rule:nonzero;stroke:none;stroke-width:1.39999998;stroke-linecap:butt;stroke-linejoin:miter;marker:none;marker-start:none;marker-mid:none;marker-end:none;stroke-miterlimit:4;stroke-dashoffset:0;stroke-opacity:1;visibility:visible;display:inline;overflow:visible"
       d="M 280.21434,598.00488 L 280.21434,628.00488 L 310.21434,628.00488 L 310.21434,598.00488 L 280.21434,598.00488 z "
       id="center" />
    <g
       id="left"
       transform="translate(285.7143,635.1427)"
       inkscape:label="#g4939">
      <path
         id="path4941"
         d="M -10.5,-7.1378 L -9.49998,-7.1378 L -9.49998,-37.1378 L -10.5,-37.1378 L -10.5,-7.1378 z "
         style="color:black;fill:#ffffff;fill-opacity:0.11764706;fill-rule:nonzero;stroke:none;stroke-width:1;stroke-linecap:butt;stroke-linejoin:miter;marker:none;marker-start:none;marker-mid:none;marker-end:none;stroke-miterlimit:4;stroke-dasharray:none;stroke-dashoffset:0;stroke-opacity:1;visibility:visible;display:inline;overflow:visible" />
      <path
         id="path4943"
         d="M -9.5,-7.1378 L -8.5,-7.1378 L -8.5,-37.1378 L -9.5,-37.1378 L -9.5,-7.1378 z "
         style="color:black;fill:#000000;fill-opacity:0.23529412;fill-rule:nonzero;stroke:none;stroke-width:4.00000047999999975;stroke-linecap:butt;stroke-linejoin:miter;marker:none;stroke-miterlimit:4;stroke-dasharray:none;stroke-dashoffset:0;stroke-opacity:1;visibility:visible;display:inline;overflow:visible" />
      <path
         id="path4945"
         d="M -8.5,-7.1378 L -7.5,-7.1378 L -7.5,-37.1378 L -8.5,-37.1378 L -8.5,-7.1378 z "
         style="color:black;fill:#ffffff;fill-opacity:0;fill-rule:nonzero;stroke:none;stroke-width:1;stroke-linecap:butt;stroke-linejoin:miter;marker:none;marker-start:none;marker-mid:none;marker-end:none;stroke-miterlimit:4;stroke-dasharray:none;stroke-dashoffset:0;stroke-opacity:1;visibility:visible;display:inline;overflow:visible" />
      <path
         id="path4947"
         d="M -7.5,-7.1378 L -5.5,-7.1378 L -5.5,-37.1378 L -7.5,-37.1378 L -7.5,-7.1378 z "
         style="opacity:0;color:black;fill:#424242;fill-opacity:1;fill-rule:nonzero;stroke:none;stroke-width:1.39999998;stroke-linecap:butt;stroke-linejoin:miter;marker:none;marker-start:none;marker-mid:none;marker-end:none;stroke-miterlimit:4;stroke-dashoffset:0;stroke-opacity:1;visibility:visible;display:inline;overflow:visible" />
    </g>
    <g
       id="topright"
       transform="translate(285.7143,635.1427)"
       inkscape:label="#g4949">
      <path
         id="path4951"
         d="M 29.50004,-37.41907 C 29.50004,-39.98404 27.34626,-42.13782 24.78129,-42.13782 L 24.50004,-42.13782 L 24.50004,-41.13782 L 24.78129,-41.13782 C 26.80956,-41.13782 28.50004,-39.44734 28.50004,-37.41907 L 28.50004,-37.13782 L 29.50004,-37.13782 L 29.50004,-37.41907 z "
         style="color:black;fill:#ffffff;fill-opacity:0.11764706;fill-rule:nonzero;stroke:none;stroke-width:1;stroke-linecap:butt;stroke-linejoin:miter;marker:none;marker-start:none;marker-mid:none;marker-end:none;stroke-miterlimit:4;stroke-dasharray:none;stroke-dashoffset:0;stroke-opacity:1;visibility:visible;display:inline;overflow:visible" />
      <path
         id="path4953"
         d="M 28.51286,-37.41907 C 28.51286,-39.44734 26.82238,-41.13782 24.79411,-41.13782 L 24.51286,-41.13782 L 24.51286,-40.13782 L 24.79411,-40.13782 C 26.28566,-40.13782 27.51285,-38.91063 27.51285,-37.41907 L 27.51285,-37.13782 L 28.51286,-37.13782 L 28.51286,-37.41907 z "
         style="color:black;fill:#000000;fill-opacity:0.23529412;fill-rule:nonzero;stroke:none;stroke-width:4.00000047999999975;stroke-linecap:butt;stroke-linejoin:miter;marker:none;stroke-miterlimit:4;stroke-dasharray:none;stroke-dashoffset:0;stroke-opacity:1;visibility:visible;display:inline;overflow:visible" />
      <path
         id="path4955"
         d="M 27.51286,-37.41907 C 27.51286,-38.91063 26.28566,-40.13782 24.79411,-40.13782 L 24.51286,-40.13782 L 24.51286,-39.13782 L 24.82536,-39.13782 C 25.76553,-39.13782 26.51285,-38.37393 26.51285,-37.41907 L 26.51285,-37.13782 L 27.51286,-37.13782 L 27.51286,-37.41907 z "
         style="color:black;fill:#ffffff;fill-opacity:0;fill-rule:nonzero;stroke:none;stroke-width:1;stroke-linecap:butt;stroke-linejoin:miter;marker:none;marker-start:none;marker-mid:none;marker-end:none;stroke-miterlimit:4;stroke-dasharray:none;stroke-dashoffset:0;stroke-opacity:1;visibility:visible;display:inline;overflow:visible" />
      <path
         style="opacity:0;color:black;fill:#424242;fill-opacity:1;fill-rule:nonzero;stroke:none;stroke-width:1.39999998;stroke-linecap:butt;stroke-linejoin:miter;marker:none;marker-start:none;marker-mid:none;marker-end:none;stroke-miterlimit:4;stroke-dashoffset:0;stroke-opacity:1;visibility:visible;display:inline;overflow:visible"
         d="M 26.51286,-37.41907 C 26.51286,-38.37393 25.76072,-39.13782 24.82055,-39.13782 L 24.51286,-39.13782 L 24.51286,-37.13782 L 26.51286,-37.13782 L 26.51286,-37.41907 z "
         id="path4957" />
    </g>
    <g
       id="bottomright"
       transform="translate(285.7143,635.1427)"
       inkscape:label="#g4959">
      <path
         id="path4961"
         d="M 24.78131,-2.1378 C 27.34628,-2.1378 29.50006,-4.29158 29.50006,-6.85655 L 29.50006,-7.1378 L 28.50006,-7.1378 L 28.50006,-6.85655 C 28.50006,-4.82828 26.80958,-3.1378 24.78131,-3.1378 L 24.50006,-3.1378 L 24.50006,-2.1378 L 24.78131,-2.1378 z "
         style="color:black;fill:#ffffff;fill-opacity:0.11764706;fill-rule:nonzero;stroke:none;stroke-width:1;stroke-linecap:butt;stroke-linejoin:miter;marker:none;marker-start:none;marker-mid:none;marker-end:none;stroke-miterlimit:4;stroke-dasharray:none;stroke-dashoffset:0;stroke-opacity:1;visibility:visible;display:inline;overflow:visible" />
      <path
         id="path4963"
         d="M 24.78131,-3.12498 C 26.80958,-3.12498 28.50006,-4.81546 28.50006,-6.84373 L 28.50006,-7.12498 L 27.50006,-7.12498 L 27.50006,-6.84373 C 27.50006,-5.35218 26.27287,-4.12499 24.78131,-4.12499 L 24.50006,-4.12499 L 24.50006,-3.12498 L 24.78131,-3.12498 z "
         style="color:black;fill:#000000;fill-opacity:0.23529412;fill-rule:nonzero;stroke:none;stroke-width:4.00000047999999975;stroke-linecap:butt;stroke-linejoin:miter;marker:none;stroke-miterlimit:4;stroke-dasharray:none;stroke-dashoffset:0;stroke-opacity:1;visibility:visible;display:inline;overflow:visible" />
      <path
         id="path4965"
         d="M 24.78131,-4.12498 C 26.27287,-4.12498 27.50006,-5.35218 27.50006,-6.84373 L 27.50006,-7.12498 L 26.50006,-7.12498 L 26.50006,-6.81248 C 26.50006,-5.87231 25.73617,-5.12499 24.78131,-5.12499 L 24.50006,-5.12499 L 24.50006,-4.12498 L 24.78131,-4.12498 z "
         style="color:black;fill:#ffffff;fill-opacity:0;fill-rule:nonzero;stroke:none;stroke-width:1;stroke-linecap:butt;stroke-linejoin:miter;marker:none;marker-start:none;marker-mid:none;marker-end:none;stroke-miterlimit:4;stroke-dasharray:none;stroke-dashoffset:0;stroke-opacity:1;visibility:visible;display:inline;overflow:visible" />
      <path
         style="opacity:0;color:black;fill:#424242;fill-opacity:1;fill-rule:nonzero;stroke:none;stroke-width:1.39999998;stroke-linecap:butt;stroke-linejoin:miter;marker:none;marker-start:none;marker-mid:none;marker-end:none;stroke-miterlimit:4;stroke-dashoffset:0;stroke-opacity:1;visibility:visible;display:inline;overflow:visible"
         d="M 24.78131,-5.12498 C 25.73617,-5.12498 26.50006,-5.87712 26.50006,-6.81729 L 26.50006,-7.12498 L 24.50006,-7.12498 L 24.50006,-5.12498 L 24.78131,-5.12498 z "
         id="path4967" />
    </g>
    <g
       id="bottomleft"
       transform="translate(285.7143,635.1427)"
       inkscape:label="#g4969">
      <path
         style="color:black;fill:#ffffff;fill-opacity:0.11764706;fill-rule:nonzero;stroke:none;stroke-width:1;stroke-linecap:butt;stroke-linejoin:miter;marker:none;marker-start:none;marker-mid:none;marker-end:none;stroke-miterlimit:4;stroke-dasharray:none;stroke-dashoffset:0;stroke-opacity:1;visibility:visible;display:inline;overflow:visible"
         d="M -10.49996,-6.85673 C -10.49996,-4.29176 -8.34618,-2.13798 -5.78121,-2.13798 L -5.49996,-2.13798 L -5.49996,-3.13798 L -5.78121,-3.13798 C -7.80948,-3.13798 -9.49996,-4.82846 -9.49996,-6.85673 L -9.49996,-7.13798 L -10.49996,-7.13798 L -10.49996,-6.85673 z "
         id="path4971" />
      <path
         style="color:black;fill:#000000;fill-opacity:0.23529412;fill-rule:nonzero;stroke:none;stroke-width:4.00000047999999975;stroke-linecap:butt;stroke-linejoin:miter;marker:none;stroke-miterlimit:4;stroke-dasharray:none;stroke-dashoffset:0;stroke-opacity:1;visibility:visible;display:inline;overflow:visible"
         d="M -9.51278,-6.85673 C -9.51278,-4.82846 -7.8223,-3.13798 -5.79403,-3.13798 L -5.51278,-3.13798 L -5.51278,-4.13798 L -5.79403,-4.13798 C -7.28558,-4.13798 -8.51277,-5.36517 -8.51277,-6.85673 L -8.51277,-7.13798 L -9.51278,-7.13798 L -9.51278,-6.85673 z "
         id="path4973" />
      <path
         style="color:black;fill:#ffffff;fill-opacity:0;fill-rule:nonzero;stroke:none;stroke-width:1;stroke-linecap:butt;stroke-linejoin:miter;marker:none;marker-start:none;marker-mid:none;marker-end:none;stroke-miterlimit:4;stroke-dasharray:none;stroke-dashoffset:0;stroke-opacity:1;visibility:visible;display:inline;overflow:visible"
         d="M -8.51278,-6.85673 C -8.51278,-5.36517 -7.28558,-4.13798 -5.79403,-4.13798 L -5.51278,-4.13798 L -5.51278,-5.13798 L -5.82528,-5.13798 C -6.76545,-5.13798 -7.51277,-5.90187 -7.51277,-6.85673 L -7.51277,-7.13798 L -8.51278,-7.13798 L -8.51278,-6.85673 z "
         id="path4975" />
      <path
         id="path4977"
         d="M -7.51278,-6.85673 C -7.51278,-5.90187 -6.76064,-5.13798 -5.82047,-5.13798 L -5.51278,-5.13798 L -5.51278,-7.13798 L -7.51278,-7.13798 L -7.51278,-6.85673 z "
         style="opacity:0;color:black;fill:#424242;fill-opacity:1;fill-rule:nonzero;stroke:none;stroke-width:1.39999998;stroke-linecap:butt;stroke-linejoin:miter;marker:none;marker-start:none;marker-mid:none;marker-end:none;stroke-miterlimit:4;stroke-dashoffset:0;stroke-opacity:1;visibility:visible;display:inline;overflow:visible" />
    </g>
    <g
       id="bottom"
       transform="translate(285.7143,635.1427)"
       inkscape:label="#g4979">
      <path
         id="path4981"
         d="M -5.49996,-2.13778 L -5.49996,-3.13778 L 24.50004,-3.13778 L 24.50004,-2.13778 L -5.49996,-2.13778 z "
         style="color:black;fill:#ffffff;fill-opacity:0.11764706;fill-rule:nonzero;stroke:none;stroke-width:1;stroke-linecap:butt;stroke-linejoin:miter;marker:none;marker-start:none;marker-mid:none;marker-end:none;stroke-miterlimit:4;stroke-dasharray:none;stroke-dashoffset:0;stroke-opacity:1;visibility:visible;display:inline;overflow:visible" />
      <path
         id="path4983"
         d="M -5.49996,-3.13778 L -5.49996,-4.13778 L 24.50004,-4.13778 L 24.50004,-3.13778 L -5.49996,-3.13778 z "
         style="color:black;fill:#000000;fill-opacity:0.23529412;fill-rule:nonzero;stroke:none;stroke-width:4.00000047999999975;stroke-linecap:butt;stroke-linejoin:miter;marker:none;marker-start:none;marker-mid:none;marker-end:none;stroke-miterlimit:4;stroke-dasharray:none;stroke-dashoffset:0;stroke-opacity:1;visibility:visible;display:inline;overflow:visible" />
      <path
         id="path4985"
         d="M -5.49996,-4.13778 L -5.49996,-5.13778 L 24.50004,-5.13778 L 24.50004,-4.13778 L -5.49996,-4.13778 z "
         style="color:black;fill:#ffffff;fill-opacity:0;fill-rule:nonzero;stroke:none;stroke-width:1;stroke-linecap:butt;stroke-linejoin:miter;marker:none;marker-start:none;marker-mid:none;marker-end:none;stroke-miterlimit:4;stroke-dasharray:none;stroke-dashoffset:0;stroke-opacity:1;visibility:visible;display:inline;overflow:visible" />
      <path
         id="path4987"
         d="M -5.49996,-5.13778 L -5.49996,-7.13778 L 24.50004,-7.13778 L 24.50004,-5.13778 L -5.49996,-5.13778 z "
         style="opacity:0;color:black;fill:#424242;fill-opacity:1;fill-rule:nonzero;stroke:none;stroke-width:1.39999998;stroke-linecap:butt;stroke-linejoin:miter;marker:none;marker-start:none;marker-mid:none;marker-end:none;stroke-miterlimit:4;stroke-dashoffset:0;stroke-opacity:1;visibility:visible;display:inline;overflow:visible" />
    </g>
    <g
       id="right"
       transform="translate(285.7143,635.1427)"
       inkscape:label="#g4989">
      <path
         style="color:black;fill:#ffffff;fill-opacity:0.11764706;fill-rule:nonzero;stroke:none;stroke-width:1;stroke-linecap:butt;stroke-linejoin:miter;marker:none;marker-start:none;marker-mid:none;marker-end:none;stroke-miterlimit:4;stroke-dasharray:none;stroke-dashoffset:0;stroke-opacity:1;visibility:visible;display:inline;overflow:visible"
         d="M 29.49986,-37.13782 L 28.49986,-37.13782 L 28.49986,-7.13782 L 29.49986,-7.13782 L 29.49986,-37.13782 z "
         id="path4991" />
      <path
         style="color:black;fill:#000000;fill-opacity:0.23529412;fill-rule:nonzero;stroke:none;stroke-width:4.00000047999999975;stroke-linecap:butt;stroke-linejoin:miter;marker:none;marker-start:none;marker-mid:none;marker-end:none;stroke-miterlimit:4;stroke-dasharray:none;stroke-dashoffset:0;stroke-opacity:1;visibility:visible;display:inline;overflow:visible"
         d="M 28.49986,-37.13782 L 27.49986,-37.13782 L 27.49986,-7.13782 L 28.49986,-7.13782 L 28.49986,-37.13782 z "
         id="path4993" />
      <path
         style="color:black;fill:#ffffff;fill-opacity:0;fill-rule:nonzero;stroke:none;stroke-width:1;stroke-linecap:butt;stroke-linejoin:miter;marker:none;marker-start:none;marker-mid:none;marker-end:none;stroke-miterlimit:4;stroke-dasharray:none;stroke-dashoffset:0;stroke-opacity:1;visibility:visible;display:inline;overflow:visible"
         d="M 27.49986,-37.13782 L 26.49986,-37.13782 L 26.49986,-7.13782 L 27.49986,-7.13782 L 27.49986,-37.13782 z "
         id="path4995" />
      <path
         style="opacity:0;color:black;fill:#424242;fill-opacity:1;fill-rule:nonzero;stroke:none;stroke-width:1.39999998;stroke-linecap:butt;stroke-linejoin:miter;marker:none;marker-start:none;marker-mid:none;marker-end:none;stroke-miterlimit:4;stroke-dashoffset:0;stroke-opacity:1;visibility:visible;display:inline;overflow:visible"
         d="M 26.49986,-37.13782 L 24.49986,-37.13782 L 24.49986,-7.13782 L 26.49986,-7.13782 L 26.49986,-37.13782 z "
         id="path4997" />
    </g>
  </g>
</svg>
