<?xml version="1.0" encoding="UTF-8" standalone="no"?>
<!-- Created with Inkscape (http://www.inkscape.org/) -->
<svg
   xmlns:dc="http://purl.org/dc/elements/1.1/"
   xmlns:cc="http://web.resource.org/cc/"
   xmlns:rdf="http://www.w3.org/1999/02/22-rdf-syntax-ns#"
   xmlns:svg="http://www.w3.org/2000/svg"
   xmlns="http://www.w3.org/2000/svg"
   xmlns:sodipodi="http://sodipodi.sourceforge.net/DTD/sodipodi-0.dtd"
   xmlns:inkscape="http://www.inkscape.org/namespaces/inkscape"
   width="16"
   height="16"
   id="svg6712"
   sodipodi:version="0.32"
   inkscape:version="0.45"
   version="1.0"
   sodipodi:docbase="/home/ivan/Projects/KDE/Plasma/applets/Lancelot/app/theme"
   sodipodi:docname="extender_button_icon.svg"
   inkscape:output_extension="org.inkscape.output.svg.inkscape"
   sodipodi:modified="true">
  <defs
     id="defs6714" />
  <sodipodi:namedview
     id="base"
     pagecolor="#ffffff"
     bordercolor="#666666"
     borderopacity="1.0"
     gridtolerance="10000"
     guidetolerance="10"
     objecttolerance="10"
     inkscape:pageopacity="0.0"
     inkscape:pageshadow="2"
     inkscape:zoom="25.4375"
     inkscape:cx="15.137728"
     inkscape:cy="8"
     inkscape:document-units="px"
     inkscape:current-layer="layer1"
     width="16px"
     height="16px"
     inkscape:window-width="1227"
     inkscape:window-height="739"
     inkscape:window-x="0"
     inkscape:window-y="24" />
  <metadata
     id="metadata6717">
    <rdf:RDF>
      <cc:Work
         rdf:about="">
        <dc:format>image/svg+xml</dc:format>
        <dc:type
           rdf:resource="http://purl.org/dc/dcmitype/StillImage" />
      </cc:Work>
    </rdf:RDF>
  </metadata>
  <g
     inkscape:label="Layer 1"
     inkscape:groupmode="layer"
     id="layer1">
    <g
       id="inactive"
       inkscape:label="#g3334"
       transform="translate(-154.53862,-141.09085)">
      <path
         style="opacity:1;fill:#000000;fill-opacity:1;stroke:none;stroke-width:3;stroke-miterlimit:4;stroke-dasharray:none;stroke-opacity:1"
         d="M 162.51715,141.72871 C 158.4497,141.72871 155.14215,145.03626 155.14215,149.10371 C 155.14215,153.17116 158.4497,156.49434 162.51715,156.49434 C 166.5846,156.49434 169.90777,153.17116 169.90777,149.10371 C 169.90777,145.03626 166.5846,141.72871 162.51715,141.72871 z M 162.51715,143.22871 C 165.773,143.22871 168.40777,145.84786 168.40777,149.10371 C 168.40777,152.35957 165.773,154.99434 162.51715,154.99434 C 159.26129,154.99434 156.64215,152.35956 156.64215,149.10371 C 156.64215,145.84785 159.26129,143.22871 162.51715,143.22871 z "
         id="path2360" />
      <path
         sodipodi:nodetypes="cccc"
         id="rect3331"
         d="M 161.16218,144.46457 L 165.80811,149.1105 L 161.16218,153.75643 L 161.16218,144.46457 z "
         style="fill:#000000;fill-opacity:1;stroke:none;stroke-width:1.5;stroke-miterlimit:4;stroke-opacity:1" />
    </g>
    <g
       id="active"
       transform="matrix(1,0,0,-1,0,16.051301)"
       inkscape:label="#g8859">
      <path
         id="path6777"
         d="M 35.362139,8.017838 C 35.362139,3.950388 32.054587,0.642843 27.987139,0.642838 C 23.91969,0.642838 20.596514,3.950388 20.596514,8.017838 C 20.596514,12.085288 23.91969,15.408458 27.987139,15.408463 C 32.054588,15.408463 35.362139,12.085288 35.362139,8.017838 z M 33.862139,8.017838 C 33.862139,11.273693 31.242994,13.908463 27.987139,13.908463 C 24.731284,13.908458 22.096514,11.273693 22.096514,8.017838 C 22.096514,4.761983 24.731284,2.142838 27.987139,2.142838 C 31.242995,2.142843 33.862139,4.761983 33.862139,8.017838 z "
         style="fill:#000000;fill-opacity:1;stroke:none;stroke-width:3;stroke-miterlimit:4;stroke-dasharray:none;stroke-opacity:1" />
      <path
         transform="matrix(0,1,-1,0,35.999999,-20.186735)"
         d="M 29.28747 4.2653561 A 1.081081 1.081081 0 1 1  27.125307,4.2653561 A 1.081081 1.081081 0 1 1  29.28747 4.2653561 z"
         sodipodi:ry="1.081081"
         sodipodi:rx="1.081081"
         sodipodi:cy="4.2653561"
         sodipodi:cx="28.206388"
         id="path6785"
         style="fill:#000000;fill-opacity:1;stroke:none;stroke-width:1.5;stroke-miterlimit:4;stroke-dasharray:none;stroke-opacity:1"
         sodipodi:type="arc" />
      <path
         transform="matrix(0,8.219198e-2,-8.219198e-2,0,33.966068,-9.0637432)"
         d="M 221.11424 72.826088 A 13.266854 13.266854 0 1 1  194.58053,72.826088 A 13.266854 13.266854 0 1 1  221.11424 72.826088 z"
         sodipodi:ry="13.266854"
         sodipodi:rx="13.266854"
         sodipodi:cy="72.826088"
         sodipodi:cx="207.84738"
         id="path7868"
         style="fill:#000000;fill-opacity:1;stroke:none;stroke-width:10.38646317;stroke-miterlimit:4;stroke-dasharray:none;stroke-opacity:1"
         sodipodi:type="arc" />
      <g
         transform="matrix(-1,0,0,-1,55.96069,16.039308)"
         id="g8843">
        <path
           transform="matrix(0,1,-1,0,35.999999,-20.186735)"
           d="M 29.28747 4.2653561 A 1.081081 1.081081 0 1 1  27.125307,4.2653561 A 1.081081 1.081081 0 1 1  29.28747 4.2653561 z"
           sodipodi:ry="1.081081"
           sodipodi:rx="1.081081"
           sodipodi:cy="4.2653561"
           sodipodi:cx="28.206388"
           id="path8847"
           style="fill:#000000;fill-opacity:1;stroke:none;stroke-width:1.5;stroke-miterlimit:4;stroke-dasharray:none;stroke-opacity:1"
           sodipodi:type="arc" />
      </g>
    </g>
  </g>
</svg>
